<svg width="92" height="42" viewBox="0 0 92 42" fill="none" xmlns="http://www.w3.org/2000/svg">
<rect x="41.9465" width="41.9465" height="41.9465" rx="9" transform="rotate(90 41.9465 0)" fill="#2E7EFF"/>
<path d="M23.5728 23.4749L24.3995 23.9991L23.8754 22.994L23.5728 23.4749Z" fill="#EFEFEF"/>
<path d="M25.7181 14.467H29.2521L25.6532 20.1733L27.2527 23.7181L33.9371 13.116C34.4558 12.2947 33.8668 11.2247 32.8942 11.2247H24.1618L22.5353 13.2565L24.0321 16.5744L25.7181 14.467Z" fill="#EFEFEF"/>
<path d="M25.2641 25.658L24.3995 23.9991L23.5728 23.4749L23.8754 22.994L20.7034 16.9202H12.0629L10.6633 14.467H19.4281L17.7314 11.2247H6.87534C6.07559 11.2247 5.57305 12.0893 5.97292 12.781L10.1824 20.1624H11.5766H13.9488H14.2406H17.8719H18.7419L21.7895 25.993L20.5521 30.1755L15.8239 22.6698L11.9332 22.5779L20.8655 36.7626C21.1627 37.2327 21.8706 37.1355 22.0273 36.6005L25.2641 25.658Z" fill="#EFEFEF"/>
<path d="M15.813 22.6589L11.9224 22.567L11.9278 22.5778L15.8184 22.6697L15.813 22.6589Z" fill="#EFEFEF"/>
<path d="M53.9237 29.2318C53.4828 29.2318 53.1232 29.139 52.8447 28.9533C52.5779 28.7677 52.3517 28.4719 52.166 28.0658L47.9546 18.7729C47.769 18.3668 47.711 18.0014 47.7806 17.6765C47.8502 17.3517 48.0126 17.1023 48.2679 16.9282C48.5231 16.7426 48.8422 16.6498 49.225 16.6498C49.6891 16.6498 50.0429 16.7542 50.2866 16.963C50.5302 17.1719 50.739 17.4793 50.9131 17.8854L53.9759 24.9856L57.0387 17.868C57.2128 17.4619 57.4216 17.1603 57.6652 16.963C57.9088 16.7542 58.2511 16.6498 58.692 16.6498C59.0516 16.6498 59.3533 16.7426 59.5969 16.9282C59.8405 17.1139 59.9913 17.3691 60.0494 17.6939C60.119 18.0072 60.061 18.3668 59.8753 18.7729L55.6465 28.0658C55.4725 28.4719 55.2463 28.7677 54.9678 28.9533C54.701 29.139 54.3529 29.2318 53.9237 29.2318Z" fill="#EFEFEF"/>
<path d="M63.0806 29.2318C62.5702 29.2318 62.1757 29.0926 61.8973 28.8141C61.6188 28.5357 61.4796 28.1296 61.4796 27.5959V18.2856C61.4796 17.752 61.6188 17.3459 61.8973 17.0675C62.1757 16.789 62.5702 16.6498 63.0806 16.6498C63.5911 16.6498 63.9856 16.789 64.264 17.0675C64.5425 17.3459 64.6817 17.752 64.6817 18.2856V27.5959C64.6817 28.1296 64.5425 28.5357 64.264 28.8141C63.9972 29.0926 63.6027 29.2318 63.0806 29.2318Z" fill="#EFEFEF"/>
<path d="M72.2609 29.2318C71.82 29.2318 71.4603 29.139 71.1819 28.9533C70.9151 28.7677 70.6888 28.4719 70.5032 28.0658L66.2918 18.7729C66.1062 18.3668 66.0482 18.0014 66.1178 17.6765C66.1874 17.3517 66.3498 17.1023 66.6051 16.9282C66.8603 16.7426 67.1793 16.6498 67.5622 16.6498C68.0263 16.6498 68.3801 16.7542 68.6237 16.963C68.8674 17.1719 69.0762 17.4793 69.2502 17.8854L72.3131 24.9856L75.3759 17.868C75.5499 17.4619 75.7588 17.1603 76.0024 16.963C76.246 16.7542 76.5883 16.6498 77.0291 16.6498C77.3888 16.6498 77.6904 16.7426 77.9341 16.9282C78.1777 17.1139 78.3285 17.3691 78.3865 17.6939C78.4561 18.0072 78.3981 18.3668 78.2125 18.7729L73.9837 28.0658C73.8097 28.4719 73.5834 28.7677 73.305 28.9533C73.0382 29.139 72.6901 29.2318 72.2609 29.2318Z" fill="#EFEFEF"/>
<path d="M85.4107 29.2666C84.1694 29.2666 83.0788 29.0055 82.1391 28.4835C81.2109 27.9498 80.4858 27.2073 79.9638 26.256C79.4417 25.3046 79.1806 24.1967 79.1806 22.9321C79.1806 21.6559 79.4359 20.5479 79.9464 19.6082C80.4684 18.6569 81.1993 17.9202 82.1391 17.3981C83.0788 16.876 84.1694 16.615 85.4107 16.615C86.6521 16.615 87.7369 16.876 88.665 17.3981C89.6047 17.9202 90.3356 18.6569 90.8577 19.6082C91.3798 20.5479 91.6408 21.6559 91.6408 22.9321C91.6408 24.1967 91.3798 25.3046 90.8577 26.256C90.3356 27.2073 89.6047 27.9498 88.665 28.4835C87.7369 29.0055 86.6521 29.2666 85.4107 29.2666ZM85.4107 26.5866C86.3157 26.5866 87.0234 26.2676 87.5338 25.6295C88.0559 24.9798 88.3169 24.0806 88.3169 22.9321C88.3169 21.7835 88.0617 20.8902 87.5512 20.2521C87.0408 19.614 86.3273 19.295 85.4107 19.295C84.4942 19.295 83.7807 19.614 83.2702 20.2521C82.7598 20.8902 82.5045 21.7835 82.5045 22.9321C82.5045 24.0806 82.7598 24.9798 83.2702 25.6295C83.7807 26.2676 84.4942 26.5866 85.4107 26.5866Z" fill="#EFEFEF"/>
<circle cx="63.1122" cy="13.413" r="1.74025" fill="#2E7EFF"/>
</svg>
