<svg xmlns="http://www.w3.org/2000/svg" xmlns:xlink="http://www.w3.org/1999/xlink" id="Layer_1" x="0px" y="0px" viewBox="0 0 700 642.1" style="enable-background:new 0 0 700 642.1;" xml:space="preserve">
<style type="text/css">
	.st0{display:none;}
	.st1{display:inline;}
	.st2{fill:#3CE045;}
	.st3{fill:#44FF4E;}
	.st4{fill:#30B438;}
	.st5{fill:#96FF9C;}
</style>
<g id="Layer_2_1_" class="st0">
	<rect x="34.7" y="21" class="st1" width="600" height="600"></rect>
</g>
<g id="Layer_1_1_">
	<g id="surface1">
		<path class="st2" d="M349.9,116.6h58.5V175h-58.5V116.6z"></path>
		<path class="st2" d="M233.5,116.6H292V175h-58.5V116.6z"></path>
		<path class="st3" d="M291.6,233.3h58.5v58.5h-58.5V233.3z"></path>
		<path class="st2" d="M291.2,174.9h58.5v58.5h-58.5V174.9z"></path>
		<path class="st2" d="M408.2,58.3h58.5v58.5h-58.5V58.3z"></path>
		<path class="st4" d="M175.2,58.3h58.5v58.5h-58.5V58.3z"></path>
		<path class="st3" d="M466.7,58.3h58.5v58.5h-58.5V58.3z"></path>
		<path class="st2" d="M116.8,58.3h58.5v58.5h-58.5V58.3z"></path>
		<path class="st5" d="M0,116.6h58.5V175H0V116.6z"></path>
		<path class="st4" d="M0,174.9h58.5v58.5H0V174.9z"></path>
		<path class="st2" d="M0,233.3h58.5v58.5H0V233.3z"></path>
		<path class="st3" d="M0,291.6h58.5v58.5H0V291.6z"></path>
		<path class="st5" d="M0,349.9h58.5v58.5H0V349.9z"></path>
		<path class="st2" d="M174.5,408.4h58.5v58.5h-58.5V408.4z"></path>
		<path class="st4" d="M0,408.4h58.5v58.5H0V408.4z"></path>
		<path class="st2" d="M0,466.7h58.5v58.5H0V466.7z"></path>
		<path class="st4" d="M174.7,466.7h58.5v58.5h-58.5V466.7z"></path>
		<path class="st3" d="M0,525h58.5v58.5H0V525z"></path>
		<path class="st5" d="M0,583.4h58.5v58.5H0V583.4z"></path>
		<path class="st3" d="M116.8,583.4h58.5v58.5h-58.5V583.4z"></path>
		<path class="st4" d="M233.5,583.4H292v58.5h-58.5V583.4z"></path>
		<path class="st3" d="M291.6,466.7h58.5v58.5h-58.5V466.7z"></path>
		<path class="st4" d="M291.8,525h58.5v58.5h-58.5V525z"></path>
		<path class="st5" d="M232.9,466.7H292v59.1h-59.1V466.7z"></path>
		<path class="st2" d="M233.5,525H292v58.5h-58.5V525z"></path>
		<path class="st2" d="M58.5,583.4H117v58.5H58.5V583.4z"></path>
		<path class="st3" d="M232.9,408.2h58.5v58.5h-58.5L232.9,408.2L232.9,408.2z"></path>
		<path class="st3" d="M174.7,349.9h58.5v58.5h-58.5V349.9z"></path>
		<path class="st2" d="M232.9,349.9h58.5v58.5h-58.5L232.9,349.9L232.9,349.9z"></path>
		<path class="st2" d="M349.9,466.7h58.5v58.5h-58.5V466.7z"></path>
		<path class="st4" d="M349.9,408.4h58.5v58.5h-58.5V408.4z"></path>
		<path class="st2" d="M291.2,408.4h59.1v59.1h-59.1V408.4z"></path>
		<path class="st5" d="M174.7,291.6h58.5v58.5h-58.5V291.6z"></path>
		<path class="st3" d="M349.9,349.9h58.5v58.5h-58.5V349.9z"></path>
		<path class="st3" d="M349.9,525h58.5v58.5h-58.5V525z"></path>
		<path class="st5" d="M349.9,583.4h58.5v58.5h-58.5V583.4z"></path>
		<path class="st5" d="M525.1,583.4h58.5v58.5h-58.5V583.4z"></path>
		<path class="st3" d="M175.2,525h58.5v58.5h-58.5V525z"></path>
		<path class="st4" d="M408,583.4h58.5v58.5H408V583.4z"></path>
		<path class="st3" d="M583,583.4h58.5v58.5H583V583.4z"></path>
		<path class="st5" d="M583,525h58.5v58.5H583V525z"></path>
		<path class="st5" d="M349.5,58.5H408V117h-58.5V58.5z"></path>
		<path class="st5" d="M525.1,58.5h58.5V117h-58.5V58.5z"></path>
		<path class="st5" d="M232.9,58.5h58.5V117h-58.5L232.9,58.5L232.9,58.5z"></path>
		<path class="st5" d="M58.5,58.5H117V117H58.5V58.5z"></path>
		<path class="st4" d="M583,466.7h58.5v58.5H583V466.7z"></path>
		<path class="st2" d="M583,408.4h58.5v58.5H583V408.4z"></path>
		<path class="st3" d="M583,349.9h58.5v58.5H583V349.9z"></path>
		<path class="st5" d="M583,291.6h58.5v58.5H583V291.6z"></path>
		<path class="st2" d="M583,174.9h58.5v58.5H583V174.9z"></path>
		<path class="st4" d="M583,233.3h58.5v58.5H583V233.3z"></path>
		<path class="st3" d="M349.7,174.9h58.5v58.5h-58.5V174.9z"></path>
		<path class="st3" d="M175.2,117h58.5v58.5h-58.5V117z"></path>
		<path class="st4" d="M408,116.6h58.5V175H408V116.6z"></path>
		<path class="st3" d="M583,116.6h58.5V175H583V116.6z"></path>
		<path class="st5" d="M408.2,291.6h58.5v58.5h-58.5V291.6z"></path>
		<path class="st3" d="M233.5,174.9H292v58.5h-58.5V174.9z"></path>
		<path class="st5" d="M641.5,0H700v58.5h-58.5V0z"></path>
		<path class="st3" d="M0,58.3h58.5v58.5H0V58.3z"></path>
		<path class="st2" d="M291.6,116.6h58.5V175h-58.5V116.6z"></path>
		<path class="st5" d="M291.6,116.6h58.5V175h-58.5V116.6z"></path>
		<path class="st2" d="M408.2,408.4h58.5v58.5h-58.5V408.4z"></path>
		<path class="st4" d="M408.2,349.9h58.5v58.5h-58.5V349.9z"></path>
		<path class="st3" d="M408.2,466.7h58.5v58.5h-58.5V466.7z"></path>
		<path class="st2" d="M175.2,583.6h58.5v58.5h-58.5V583.6z"></path>
		<path class="st2" d="M466.7,583.4h58.5v58.5h-58.5V583.4z"></path>
		<path class="st5" d="M408.2,525h58.5v58.5h-58.5V525z"></path>
	</g>
</g>
</svg>