<svg id="Layer_1" data-name="Layer 1" xmlns="http://www.w3.org/2000/svg" viewBox="0 0 691.52 110.35"><defs><style>.cls-1{fill:#3ce045;}.cls-2{fill:#44ff4e;}.cls-3{fill:#30b438;}.cls-4{fill:#96ff9c;}.cls-5{fill:#fff;}</style></defs><g id="Layer_1-2" data-name="Layer 1"><g id="surface1"><path class="cls-1" d="M60.13,20H70.19v10H60.13Z"/><path class="cls-1" d="M40.13,20h10v10h-10Z"/><path class="cls-2" d="M50.11,40.09H60.17V50.15H50.11Z"/><path class="cls-1" d="M50,30.06H60.1V40.11H50Z"/><path class="cls-1" d="M70.15,10H80.21V20.07H70.15Z"/><path class="cls-3" d="M30.11,10h10V20.07h-10Z"/><path class="cls-2" d="M80.21,10H90.26V20.07H80.21Z"/><path class="cls-1" d="M20.07,10H30.13V20.07H20.07Z"/><path class="cls-4" d="M0,20H10.05v10H0Z"/><path class="cls-3" d="M0,30.06H10.05V40.11H0Z"/><path class="cls-1" d="M0,40.09H10.05V50.15H0Z"/><path class="cls-2" d="M0,50.11H10.05V60.17H0Z"/><path class="cls-4" d="M0,60.13H10.05V70.19H0Z"/><path class="cls-1" d="M30,70.19H40v10H30Z"/><path class="cls-3" d="M0,70.19H10.05v10H0Z"/><path class="cls-1" d="M0,80.21H10.05V90.26H0Z"/><path class="cls-3" d="M30,80.21H40.08V90.26H30Z"/><path class="cls-2" d="M0,90.23H10.05v10H0Z"/><path class="cls-4" d="M0,100.26H10.05v10.06H0Z"/><path class="cls-2" d="M20.07,100.26H30.13v10.06H20.07Z"/><path class="cls-3" d="M40.13,100.26h10v10.06h-10Z"/><path class="cls-2" d="M50.11,80.21H60.17V90.26H50.11Z"/><path class="cls-3" d="M50.15,90.23H60.2v10H50.15Z"/><path class="cls-4" d="M40,80.21H50.18V90.36H40Z"/><path class="cls-1" d="M40.13,90.23h10v10h-10Z"/><path class="cls-1" d="M10.05,100.26H20.11v10.06H10.05Z"/><path class="cls-2" d="M40,70.15h10V80.21H40V70.15Z"/><path class="cls-2" d="M30,60.13H40.08V70.19H30Z"/><path class="cls-1" d="M40,60.13h10V70.19H40V60.13Z"/><path class="cls-1" d="M60.13,80.21H70.19V90.26H60.13Z"/><path class="cls-3" d="M60.13,70.19H70.19v10H60.13Z"/><path class="cls-1" d="M50,70.19H60.2V80.34H50Z"/><path class="cls-4" d="M30,50.11H40.08V60.17H30Z"/><path class="cls-2" d="M60.13,60.13H70.19V70.19H60.13Z"/><path class="cls-2" d="M60.13,90.23H70.19v10H60.13Z"/><path class="cls-4" d="M60.13,100.26H70.19v10.06H60.13Z"/><path class="cls-4" d="M90.24,100.26H100.3v10.06H90.24Z"/><path class="cls-2" d="M30.11,90.23h10v10h-10Z"/><path class="cls-3" d="M70.12,100.26h10v10.06h-10Z"/><path class="cls-2" d="M100.19,100.26h10.06v10.06H100.19Z"/><path class="cls-4" d="M100.19,90.23h10.06v10H100.19Z"/><path class="cls-4" d="M60.06,10.05H70.12V20.11H60.06Z"/><path class="cls-4" d="M90.24,10.05H100.3V20.11H90.24Z"/><path class="cls-4" d="M40,10.05h10V20.11H40V10.05Z"/><path class="cls-4" d="M10.05,10.05H20.11V20.11H10.05Z"/><path class="cls-3" d="M100.19,80.21h10.06V90.26H100.19Z"/><path class="cls-1" d="M100.19,70.19h10.06v10H100.19Z"/><path class="cls-2" d="M100.19,60.13h10.06V70.19H100.19Z"/><path class="cls-4" d="M100.19,50.11h10.06V60.17H100.19Z"/><path class="cls-1" d="M100.19,30.06h10.06V40.11H100.19Z"/><path class="cls-3" d="M100.19,40.09h10.06V50.15H100.19Z"/><path class="cls-2" d="M60.1,30.06H70.15V40.11H60.1Z"/><path class="cls-2" d="M30.11,20.11h10V30.16h-10Z"/><path class="cls-3" d="M70.12,20h10v10h-10Z"/><path class="cls-2" d="M100.19,20h10.06v10H100.19Z"/><path class="cls-4" d="M70.15,50.11H80.21V60.17H70.15Z"/><path class="cls-2" d="M40.13,30.06h10V40.11h-10Z"/><path class="cls-4" d="M110.25,0h10V10.05h-10Z"/><path class="cls-2" d="M0,10H10.05V20.07H0Z"/><path class="cls-1" d="M50.11,20H60.17v10H50.11Z"/><path class="cls-4" d="M50.11,20H60.17v10H50.11Z"/><path class="cls-1" d="M70.15,70.19H80.21v10H70.15Z"/><path class="cls-3" d="M70.15,60.13H80.21V70.19H70.15Z"/><path class="cls-2" d="M70.15,80.21H80.21V90.26H70.15Z"/><path class="cls-1" d="M30.11,100.3h10v10h-10Z"/><path class="cls-1" d="M80.21,100.26H90.26v10.06H80.21Z"/><path class="cls-4" d="M70.15,90.23H80.21v10H70.15Z"/></g></g><path class="cls-5" d="M195.5,31.79h9.39V86.47c0,2.4-1,3.75-3.76,3.75s-3.75-1.35-3.75-3.75V42.16h-.15l-7.14,10.59V54c0,2.33-.9,4.51-3.75,4.51s-3.76-2.18-3.76-4.51v-1.2l-7.13-10.59h-.15V86.47c0,2.4-1.06,3.75-3.76,3.75s-3.75-1.35-3.75-3.75V31.79h9.38L186.34,45Z"/><path class="cls-5" d="M236.58,35.62c.6-2,1.42-3.83,3.83-3.83s3.38,1.88,3.9,3.83l14.5,50.85c.52,1.8-1.51,3.75-3.61,3.75-2.33,0-3.53-2-4-3.75l-2.78-9h-16l-2.85,9c-.53,1.8-1.73,3.75-4.06,3.75-2.1,0-4.13-2-3.6-3.75Zm3.9,14h-.15L234.47,70h11.79Z"/><path class="cls-5" d="M283.44,39.3V42c0,2.4-1.06,3.75-3.76,3.75s-3.75-1.35-3.75-3.75V31.79H313V42c0,2.4-1,3.75-3.76,3.75s-3.75-1.35-3.75-3.75V39.3h-7.29V86.47c0,2.4-1.05,3.75-3.75,3.75s-3.76-1.35-3.76-3.75V39.3Z"/><path class="cls-5" d="M337.51,86.47c0,2.4-1.06,3.75-3.76,3.75S330,88.87,330,86.47V31.79h25.23c5.93,0,11.87,4.21,11.87,10.89v5.19c0,7.06-5.86,10.66-11.87,10.66h-6.91l16.9,24.18c.83,1.13,1.88,2.56,1.88,4a3.6,3.6,0,0,1-3.83,3.53,4,4,0,0,1-3.31-2.1L339.23,58.53h-1.72Zm0-35.45h16.67c2.1,0,5.41-.15,5.41-3.15V42.68c0-3-3.08-3.38-5.34-3.38H337.51Z"/><path class="cls-5" d="M406.37,82.71h11a3.76,3.76,0,1,1,0,7.51H387.82a3.76,3.76,0,0,1,0-7.51h11V39.3h-11a3.46,3.46,0,0,1-3.75-3.75,3.47,3.47,0,0,1,3.75-3.76h29.59a3.47,3.47,0,0,1,3.76,3.76,3.46,3.46,0,0,1-3.76,3.75h-11Z"/><path class="cls-5" d="M452.41,61,439,38a4.86,4.86,0,0,1-.9-2.71,3.71,3.71,0,0,1,3.68-3.53c2.47,0,3.3,1.88,4.35,3.68l10.52,18,10.51-18c1.05-1.8,1.88-3.68,4.36-3.68a3.71,3.71,0,0,1,3.68,3.53,4.93,4.93,0,0,1-.9,2.71L461,61l13.37,23a4.9,4.9,0,0,1,.9,2.7,3.71,3.71,0,0,1-3.68,3.53c-2.48,0-3.31-1.87-4.36-3.68l-10.51-18-10.52,18c-1.05,1.81-1.88,3.68-4.35,3.68a3.7,3.7,0,0,1-3.68-3.53A4.82,4.82,0,0,1,439,84Z"/><path class="cls-5" d="M526.68,75.5c1.5,2,2.63,3.68,2.63,6.24,0,5.63-4.28,8.48-9.47,8.48H503.32a11,11,0,0,1-7.58-2.4,9.47,9.47,0,0,1-3.53-7c0-2.41,1.35-4.51,4-4.51a3.6,3.6,0,0,1,3.53,3.83c0,2.25,1.2,2.55,3.3,2.55h16.3c.6,0,2.48.23,2.48-.9,0-.6-1-1.72-1.35-2.18L494.68,46.51c-1.57-2-2.47-3.53-2.47-6.15a8.34,8.34,0,0,1,4-7.21c2.1-1.36,3.83-1.36,6.23-1.36h15.92a10.63,10.63,0,0,1,7.44,2.48,10.25,10.25,0,0,1,3.53,7.14c0,2.4-1.2,4.35-3.91,4.35a3.33,3.33,0,0,1-3.6-3.53c0-2.55-1.28-2.93-3.61-2.93H502.27c-.83,0-2.55-.22-2.55,1.06,0,.67.82,1.57,1.12,2Z"/><path class="cls-5" d="M569.48,90.22c-2.55,0-4.05-.52-4.58-3.22h-.15c-.52,2.7-2,3.22-4.58,3.22h-5.63c-2.63,0-3.31-.45-4.58-2.7l-2.63-4.58a5.22,5.22,0,0,1-1.05-3.83V35.55c0-2.4,1.05-3.76,3.75-3.76s3.76,1.36,3.76,3.76V79.11l2,3.6H559l2-3.6V55.45c0-2.33,1-4.43,3.76-4.43s3.75,2.1,3.75,4.43V79.11l2,3.6h3.23l2-3.6V35.55c0-2.4,1-3.76,3.75-3.76s3.76,1.36,3.76,3.76V79.11a5.27,5.27,0,0,1-1,3.83l-2.63,4.58c-1.28,2.25-2,2.7-4.58,2.7Z"/><path class="cls-5" d="M615.07,35.62c.6-2,1.42-3.83,3.83-3.83s3.38,1.88,3.9,3.83l14.5,50.85c.52,1.8-1.51,3.75-3.61,3.75-2.33,0-3.53-2-4.05-3.75l-2.78-9h-16l-2.85,9c-.53,1.8-1.73,3.75-4.06,3.75-2.1,0-4.13-2-3.6-3.75Zm3.9,14h-.15L613,70h11.79Z"/><path class="cls-5" d="M661.93,86.47c0,2.4-1.06,3.75-3.76,3.75s-3.75-1.35-3.75-3.75V31.79h24.93c3.46,0,5.93.53,8.64,3.08,3.23,3,3.53,5.79,3.53,9.84V54.93c0,3.83-.3,6.53-3.08,9.61-2.93,3.3-6,3.6-10.07,3.6H661.93Zm0-25.84H678.6c4.43,0,5.41-1.12,5.41-5.4V44.71c0-4.28-1-5.41-5.41-5.41H661.93Z"/></svg>