<?xml version="1.0" standalone="no"?>
<!DOCTYPE svg PUBLIC "-//W3C//DTD SVG 1.1//EN" "http://www.w3.org/Graphics/SVG/1.1/DTD/svg11.dtd" >
<svg xmlns="http://www.w3.org/2000/svg" xmlns:xlink="http://www.w3.org/1999/xlink" version="1.1">
<metadata>
Created by FontForge 20170731 at Thu Apr 15 18:31:24 1993
 By Aleksey,,,
This is a copyrighted typeface program
</metadata>
<defs>
<font id="OcrA-Regular" horiz-adv-x="620" >
  <font-face 
    font-family="OcrA"
    font-weight="400"
    font-stretch="normal"
    units-per-em="1000"
    panose-1="0 0 0 0 0 0 0 0 0 0"
    ascent="824"
    descent="-176"
    x-height="462"
    cap-height="667"
    bbox="0 -176 773 824"
    underline-thickness="85"
    underline-position="-256"
    unicode-range="U+0020-F002"
  />
<missing-glyph horiz-adv-x="824" 
d="M51 0v824h722v-824h-722zM722 51v722h-620v-722h620z" />
    <glyph glyph-name=".notdef" horiz-adv-x="824" 
d="M51 0v824h722v-824h-722zM722 51v722h-620v-722h620z" />
    <glyph glyph-name=".null" horiz-adv-x="0" 
 />
    <glyph glyph-name="nonmarkingreturn" 
 />
    <glyph glyph-name="space" unicode=" " 
 />
    <glyph glyph-name="exclam" unicode="!" 
d="M370 597l-15 -276q0 -39 -9.5 -52.5t-35.5 -13.5q-25 0 -34.5 13.5t-9.5 52.5l-15 276l-1 24q0 46 47 46h13q36 0 48.5 -9.5t12.5 -36.5zM325 0h-15q-35 0 -49 10t-14 37v13q0 35 10 47.5t38 12.5h15q36 0 50 -10t14 -37v-21q0 -16 -6 -34t-43 -18z" />
    <glyph glyph-name="quotedbl" unicode="&#x22;" 
d="M313 590l-51 -205q-9 -36 -18 -46.5t-32 -10.5q-28 0 -37 13t-9 55v203q0 16 0.5 30.5t10 24t18 11.5t39.5 2h19h26t26.5 -6.5t15.5 -32.5q0 -11 -2.5 -19.5t-5.5 -18.5zM513 590l-51 -205q-9 -36 -18 -46.5t-32 -10.5q-28 0 -37 13t-9 55v203q0 16 0.5 30.5t10 24
t18 11.5t39.5 2h19h26t26.5 -6.5t15.5 -32.5q0 -11 -2.5 -19.5t-5.5 -18.5z" />
    <glyph glyph-name="numbersign" unicode="#" 
d="M433 485h14q30 0 36.5 -1t19 -11t12.5 -29q0 -24 -14.5 -32.5t-53.5 -8.5h-14v-95h14q29 0 36.5 -1t19.5 -11t12 -29q0 -23 -13 -31t-22 -9t-33 -1h-14v-72v-13q0 -21 -1 -25.5t-11 -17t-29 -12.5q-24 0 -32.5 14.5t-8.5 53.5v72h-82v-72v-13q0 -21 -1 -25.5t-10.5 -17
t-29.5 -12.5q-24 0 -32.5 14.5t-8.5 53.5v72h-14h-13q-11 0 -19.5 0.5t-19.5 7.5q-16 14 -16 33q0 23 13 31t22 9t33 1h14v95h-14h-13q-11 0 -19.5 0.5t-22 10.5t-13.5 30q0 23 13 31t22 9t33 1h14v72q0 40 8.5 54t32.5 14q23 0 31 -13t9 -22t1 -33v-72h82v72q0 40 8.5 54
t32.5 14t32.5 -14.5t8.5 -53.5v-72zM351 403h-82v-95h82v95z" />
    <glyph glyph-name="dollar" unicode="$" 
d="M183 376h298q17 0 29 -13t12 -33v-156q0 -20 -12 -32t-33 -12h-124v-73q0 -57 -43 -57q-42 0 -42 57v73h-113q-57 0 -57 43q0 42 57 42h282v76h-298q-17 0 -29 13t-12 33v156q0 20 12 32t33 12h125v73q0 56 42 56q43 0 43 -56v-73h112q57 0 57 -42q0 -43 -57 -43h-282
v-76z" />
    <glyph glyph-name="percent" unicode="%" 
d="M527 626l-401 -692q-21 -35 -37 -35q-22 0 -22 26q0 21 19 52l401 689q20 34 40 34q8 0 14 -7t6 -16q0 -11 -3.5 -19.5t-16.5 -31.5zM62 423v234q0 17 13 30t30 13h89q18 0 30.5 -13.5t12.5 -31.5v-234q0 -17 -13 -29t-30 -12h-90q-16 0 -29 13t-13 30zM108 426h83v228
h-83v-228zM373 -56v235q0 17 13 30t30 13h90q18 0 30.5 -13.5t12.5 -31.5v-235q0 -17 -13 -29t-30 -12h-91q-16 0 -29 13t-13 30zM419 -53h84v229h-84v-229z" />
    <glyph glyph-name="ampersand" unicode="&#x26;" 
d="M408 184l31 27q24 20 39 20q17 0 30 -13t13 -31q0 -19 -25 -41l-30 -26l37 -40q21 -24 21 -38q0 -18 -12.5 -30.5t-30.5 -12.5t-40 23l-40 42l-61 -52q-15 -12 -31 -12h-100q-46 0 -78.5 32.5t-32.5 77.5v74q0 22 16 37l78 68l-79 84q-15 16 -15 32v82q0 42 33 74t76 32
h118q46 0 79 -31t33 -75v-82q0 -12 -4 -19.5t-17 -18.5l-101 -86zM257 344l96 80v51q0 33 -31 33h-109q-30 0 -30 -33v-51zM343 127l-93 99l-67 -58v-54q0 -29 31 -29h81z" />
    <glyph glyph-name="quotesingle" unicode="'" 
d="M380 590l-51 -205q-9 -36 -18 -46.5t-32 -10.5q-28 0 -37 13t-9 55v203q0 16 0.5 30.5t10 24t18 11.5t39.5 2h19h26t26.5 -6.5t15.5 -32.5q0 -11 -2.5 -19.5t-5.5 -18.5z" />
    <glyph glyph-name="parenleft" unicode="(" 
d="M288 409v-151q0 -28 15 -48l93 -122l11 -14q14 -18 14 -32q0 -18 -12 -30t-30 -12q-13 0 -22 6.5t-28 29.5l-84 104q-44 53 -44 118v151q0 65 44 118l84 104q21 25 28.5 30.5t21.5 5.5q18 0 30 -12t12 -30q0 -12 -14 -32l-11 -14l-93 -122q-15 -20 -15 -48z" />
    <glyph glyph-name="parenright" unicode=")" 
d="M318 457l-93 122l-11 14q-14 20 -14 32q0 18 12 30t30 12q13 0 22 -6.5t28 -29.5l84 -104q44 -53 44 -118v-151q0 -65 -44 -118l-84 -104q-21 -25 -28.5 -30.5t-21.5 -5.5q-18 0 -30 12t-12 30q0 14 14 32l11 14l93 122q15 20 15 48v151q0 28 -15 48z" />
    <glyph glyph-name="asterisk" unicode="*" 
d="M244 333l-120 102q-17 15 -21.5 22t-4.5 19q0 18 12 31t31 13q15 0 38 -20l88 -75v112q0 57 43 57q42 0 42 -57v-112l88 75q23 20 38 20q17 0 30 -13t13 -31q0 -11 -5 -18.5t-21 -22.5l-120 -102l120 -104q26 -22 26 -40t-12 -31t-31 -13q-9 0 -16.5 4t-21.5 16l-88 75
v-109q0 -57 -42 -57q-43 0 -43 57v109l-88 -75q-14 -12 -21.5 -16t-16.5 -4q-18 0 -30.5 12.5t-12.5 31.5t26 40z" />
    <glyph glyph-name="plus" unicode="+" 
d="M268 374v112q0 57 43 57q42 0 42 -57v-112h112q57 0 57 -42q0 -43 -57 -43h-112v-111q0 -57 -42 -57q-43 0 -43 56v112h-111q-57 0 -57 43q0 42 57 42h111z" />
    <glyph glyph-name="comma" unicode="," 
d="M353 216h-113q-56 0 -56 43q0 42 56 42h156q18 0 30 -12t12 -31v-202q0 -56 -42 -56q-43 0 -43 56v160z" />
    <glyph glyph-name="hyphen" unicode="-" 
d="M355 293h-88q-57 0 -57 43t57 43h88q57 0 57 -43t-57 -43z" />
    <glyph glyph-name="hyphen" unicode="&#xad;" 
d="M355 293h-88q-57 0 -57 43t57 43h88q57 0 57 -43t-57 -43z" />
    <glyph glyph-name="period" unicode="." 
d="M351 107h-82q-19 0 -31 12t-12 31v71q0 19 12.5 31.5t31.5 12.5h81q20 0 32.5 -12t12.5 -32v-69q0 -45 -45 -45z" />
    <glyph glyph-name="slash" unicode="/" 
d="M510 590l-325 -556q-19 -34 -44 -34q-16 0 -29 12t-13 29q0 13 13 36l324 556q19 34 44 34q16 0 29 -12t13 -29q0 -13 -12 -36z" />
    <glyph glyph-name="zero" unicode="0" 
d="M98 85v497q0 35 25 60t60 25h254q36 0 60.5 -25.5t24.5 -63.5v-499q0 -32 -25.5 -55.5t-59.5 -23.5h-257q-33 0 -57.5 25.5t-24.5 59.5zM183 85h254v497h-254v-497z" />
    <glyph glyph-name="one" unicode="1" 
d="M353 85h85v161q0 56 43 56q42 0 42 -56v-200q0 -20 -11 -33t-29 -13h-327q-57 0 -57 43q0 42 57 42h112v497h-112q-57 0 -57 43q0 42 57 42h197v-582z" />
    <glyph glyph-name="two" unicode="2" 
d="M184 290v-205h281q57 0 57 -42q0 -43 -57 -43h-367v290q0 37 24.5 61.5t61.5 24.5h252v206h-281q-57 0 -57 43q0 42 57 42h281q38 0 62 -25t24 -64v-202q0 -37 -24.5 -61.5t-61.5 -24.5h-252z" />
    <glyph glyph-name="three" unicode="3" 
d="M433 582h-279q-57 0 -57 43q0 42 57 42h281q34 0 59 -22t25 -52v-186q0 -43 -32 -74q34 -37 34 -87v-161q0 -35 -25 -60t-61 -25h-281q-57 0 -57 43q0 42 57 42h281v154q0 51 -46 51h-150q-57 0 -57 42q0 43 57 43h151q43 0 43 53v154z" />
    <glyph glyph-name="four" unicode="4" 
d="M227 303h169v233q0 57 43 57q42 0 42 -57v-233q43 -6 43 -42q0 -17 -12 -30t-27 -13h-4v-161q0 -57 -42 -57q-43 0 -43 57v161h-255v392q0 57 43 57t43 -57v-307z" />
    <glyph glyph-name="five" unicode="5" 
d="M267 375h169q36 0 60.5 -24.5t24.5 -60.5v-205q0 -35 -25 -60t-60 -25h-196q-28 0 -52 11l-52 23q-39 17 -39 44q0 16 12 29t29 13q11 0 32 -9l46 -20q10 -4 14 -5t20 -1h186v205h-254v377h282q57 0 57 -42q0 -43 -57 -43h-197v-207z" />
    <glyph glyph-name="six" unicode="6" 
d="M183 305h298q17 0 29 -13t12 -33v-215q0 -20 -12 -32t-33 -12h-335q-19 0 -31.5 12.5t-12.5 31.5v582q0 17 12 29t29 12h44q18 0 30.5 -12.5t12.5 -30.5q0 -37 -43 -42v-277zM437 220h-254v-135h254v135z" />
    <glyph glyph-name="seven" unicode="7" 
d="M437 582h-255q-6 -38 -41 -38q-43 0 -43 49v25q0 49 45 49h379v-258q0 -24 -16 -37l-136 -117q-16 -13 -16 -35v-162q0 -57 -42 -57q-43 0 -43 56v204q0 19 14 32l134 116q14 11 17 18t3 26v129z" />
    <glyph glyph-name="eight" unicode="8" 
d="M183 375v246q0 46 43 46h168q19 0 31 -13t12 -33v-246q85 -9 85 -90v-200q0 -35 -25 -60t-60 -25h-257q-32 0 -57 24t-25 56v210q0 36 23.5 60.5t61.5 24.5zM183 85h254v205h-254v-205zM268 375h84v207h-84v-207z" />
    <glyph glyph-name="nine" unicode="9" 
d="M437 362h-298q-17 0 -29 13t-12 33v215q0 20 12 32t33 12h335q19 0 31.5 -12.5t12.5 -31.5v-582q0 -17 -12 -29t-29 -12h-44q-18 0 -30.5 12.5t-12.5 30.5q0 37 43 42v277zM183 447h254v135h-254v-135z" />
    <glyph glyph-name="colon" unicode=":" 
d="M351 107h-82q-19 0 -31 12t-12 31v71q0 19 12.5 31.5t31.5 12.5h81q20 0 32.5 -12t12.5 -32v-69q0 -45 -45 -45zM351 397h-82q-19 0 -31 12t-12 31v71q0 19 12.5 31.5t31.5 12.5h81q20 0 32.5 -12t12.5 -32v-69q0 -45 -45 -45z" />
    <glyph glyph-name="semicolon" unicode=";" 
d="M353 216h-113q-56 0 -56 43q0 42 56 42h156q18 0 30 -12t12 -31v-202q0 -56 -42 -56q-43 0 -43 56v160zM309 436h-82q-19 0 -31 12t-12 31v71q0 19 12.5 31.5t31.5 12.5h81q20 0 32.5 -12t12.5 -32v-69q0 -45 -45 -45z" />
    <glyph glyph-name="less" unicode="&#x3c;" 
d="M207 353l302 -200q34 -21 34 -47q0 -19 -13 -33t-33 -14q-10 0 -17 3t-23 14l-357 237q-23 14 -23 40t24 41l356 237q16 11 23 14t17 3q18 0 32 -14t14 -33q0 -15 -6.5 -24.5t-27.5 -22.5z" />
    <glyph glyph-name="equal" unicode="=" 
d="M465 217h-310q-57 0 -57 43q0 42 57 42h310q57 0 57 -42q0 -43 -57 -43zM465 399h-310q-57 0 -57 43q0 42 57 42h310q57 0 57 -42q0 -43 -57 -43z" />
    <glyph glyph-name="greater" unicode="&#x3e;" 
d="M412 353l-301 201q-20 13 -27 23t-7 24q0 19 13 33t33 14q15 0 39 -17l357 -237q24 -15 24 -41q0 -23 -23 -40l-358 -237q-17 -12 -23 -14.5t-17 -2.5q-18 0 -31.5 14.5t-13.5 32.5q0 15 6.5 24.5t27.5 22.5z" />
    <glyph glyph-name="question" unicode="?" 
d="M436 498v32l-42 37l-214 -184q-13 -11 -21.5 -15.5t-17.5 -4.5q-17 0 -30 13t-13 31q0 11 5 18.5t21 22.5l243 207q11 11 27 11t27 -11l86 -73q14 -13 14 -34v-68q0 -22 -18 -37l-235 -203v-38q0 -56 -42 -56q-43 0 -43 56v60q0 18 17 32zM225 84q18 0 30.5 -12.5
t12.5 -29.5q0 -18 -12.5 -30.5t-30.5 -12.5t-30 12t-12 30t12.5 30.5t29.5 12.5z" />
    <glyph glyph-name="at" unicode="@" 
d="M514 519v-382q0 -39 -6 -57t-36.5 -49t-78.5 -31q-46 0 -83 34q-38 -32 -82 -32q-51 0 -87 38t-36 91v153q0 57 30 84.5t50.5 34.5t59.5 7h38q16 0 30.5 -0.5t24 -10t11.5 -18t2 -39.5v-203q0 -55 41 -55q22 0 31 14t9 51v353q0 83 -72 83h-108q-27 0 -39.5 -7.5
t-27.5 -35.5t-39 -28q-17 0 -29 11t-12 27q0 19 17 45t48.5 48t84.5 22h96q68 0 115.5 -42.5t47.5 -105.5zM267 329h-28q-52 0 -52 -49v-138q0 -58 42 -58q40 0 40 54z" />
    <glyph glyph-name="A" unicode="A" 
d="M405 144h-190l-29 -100q-8 -26 -17.5 -35.5t-27.5 -9.5t-30 12t-12 30q0 11 5 27l166 565q10 33 41 33t41 -33l164 -565q5 -17 5 -27q0 -18 -12 -30t-30 -12q-32 0 -44 45zM381 229l-71 241l-70 -241h141z" />
    <glyph glyph-name="B" unicode="B" 
d="M99 667h254q77 0 123.5 -51.5t46.5 -137.5q0 -95 -57 -146q33 -32 45 -63.5t12 -90.5q0 -79 -48.5 -128.5t-125.5 -49.5h-250v667zM184 85h162q92 0 92 103q0 102 -94 102h-160v-205zM184 375h162q92 0 92 106q0 101 -93 101h-161v-207z" />
    <glyph glyph-name="C" unicode="C" 
d="M466 0h-149q-35 0 -65.5 19.5t-46.5 52.5l-88 178q-19 38 -19 83q0 22 5 43t14 41l88 178q35 72 117 72h144q56 0 56 -42q0 -43 -56 -43h-141q-30 0 -44 -26l-84 -169q-13 -26 -13 -55q0 -24 13 -51l82 -167q15 -29 49 -29h138q56 0 56 -42q0 -43 -56 -43z" />
    <glyph glyph-name="D" unicode="D" 
d="M182 85v497h-28q-57 0 -57 43q0 42 57 42h147q77 0 115 -75l84 -171q21 -41 21 -85q0 -50 -20 -90l-87 -175q-34 -71 -121 -71h-139q-57 0 -57 43q0 42 57 42h28zM267 85h29q30 0 44 27l84 172q12 23 12 49q0 15 -3 26t-14 32l-81 164q-8 16 -16.5 21.5t-27.5 5.5h-27
v-497z" />
    <glyph glyph-name="E" unicode="E" 
d="M183 85h282q57 0 57 -42q0 -43 -57 -43h-367v667h367q57 0 57 -42q0 -43 -57 -43h-282v-207h114q57 0 57 -42q0 -43 -57 -43h-114v-205z" />
    <glyph glyph-name="F" unicode="F" 
d="M183 361v-304q0 -57 -42 -57q-19 0 -31 13t-12 34v10v610h367q57 0 57 -42q0 -43 -57 -43h-282v-135h196q57 0 57 -43t-57 -43h-196z" />
    <glyph glyph-name="G" unicode="G" 
d="M438 217h-71q-57 0 -57 42q0 43 57 43h156v-178q0 -50 -38 -87t-89 -37h-169q-54 0 -91 37t-37 92v235q0 57 39 107l113 146q39 50 104 50h110q57 0 57 -42q0 -43 -57 -43h-99q-26 0 -32.5 -3.5t-22.5 -23.5l-106 -137q-21 -27 -21 -65v-217q0 -51 50 -51h157q47 0 47 51
v81z" />
    <glyph glyph-name="H" unicode="H" 
d="M437 289h-254v-232q0 -57 -42 -57q-43 0 -43 57v553q0 57 43 57q42 0 42 -57v-235h254v235q0 57 42 57q43 0 43 -57v-554q0 -56 -43 -56q-42 0 -42 56v233z" />
    <glyph glyph-name="I" unicode="I" 
d="M353 582v-497h112q57 0 57 -42q0 -43 -57 -43h-308q-57 0 -57 43q0 42 57 42h111v497h-113q-57 0 -57 43q0 42 57 42h310q57 0 57 -42q0 -43 -57 -43h-112z" />
    <glyph glyph-name="J" unicode="J" 
d="M478 609v-474q0 -60 -36.5 -97.5t-95.5 -37.5h-72q-59 0 -97 35t-38 91v119q0 57 43 57q42 0 42 -57v-107q0 -53 50 -53h69q50 0 50 50v474q0 57 42 57q43 0 43 -57z" />
    <glyph glyph-name="K" unicode="K" 
d="M207 334l291 -250q26 -22 26 -41q0 -18 -12 -31t-31 -13q-9 0 -16.5 4t-22.5 17l-258 221v-184q0 -57 -42 -57q-43 0 -43 57v553q0 57 43 57q42 0 42 -57v-183l259 220q14 13 21 17t17 4q17 0 30 -13t13 -31q0 -19 -26 -41z" />
    <glyph glyph-name="L" unicode="L" 
d="M184 85h280q57 0 57 -42q0 -43 -57 -43h-365v609q0 57 42 57q43 0 43 -57v-524z" />
    <glyph glyph-name="M" unicode="M" 
d="M310 516l104 151h108v-610q0 -57 -43 -57q-42 0 -42 57v492l-85 -121v-8q0 -57 -42 -57q-43 0 -43 57v8l-84 121v-492q0 -57 -42 -57q-43 0 -43 57v610h108z" />
    <glyph glyph-name="N" unicode="N" 
d="M437 147v463q0 57 42 57q43 0 43 -57v-610h-113l-226 514v-457q0 -57 -42 -57q-43 0 -43 57v610h113z" />
    <glyph glyph-name="O" unicode="O" 
d="M209 65l-89 177q-22 45 -22 92q0 45 19 83l92 186q32 64 103 64q29 0 56.5 -17t40.5 -43l95 -190q18 -38 18 -84t-24 -94l-88 -177q-13 -27 -41.5 -44.5t-57.5 -17.5q-68 0 -102 65zM335 103l91 181q11 22 11 50q0 26 -16 58l-87 174q-8 15 -24 15q-18 0 -25 -15
l-85 -171q-11 -22 -14 -33t-3 -29q0 -26 17 -60l83 -167q10 -20 28 -20q15 0 24 17z" />
    <glyph glyph-name="P" unicode="P" 
d="M183 253v-196q0 -56 -42 -56q-19 0 -31 12.5t-12 32.5v11v610h296q59 0 94 -37t35 -99v-138q0 -66 -37 -103t-103 -37h-200zM183 338h206q49 0 49 55v138q0 51 -52 51h-203v-244z" />
    <glyph glyph-name="Q" unicode="Q" 
d="M366 0l-31 78l-64 -55q-30 -23 -70 -23q-44 0 -73.5 30.5t-29.5 74.5v246q0 34 16 67.5t45 57.5l191 163q33 27 67 27q42 0 73.5 -30.5t31.5 -70.5v-247q0 -78 -60 -131l-59 -50l21 -52h54q18 0 31 -12t13 -30q0 -19 -13 -31t-34 -12h-109zM302 162l-26 67q-3 8 -5.5 17
t-2.5 14q0 16 12 28t30 12q30 0 41 -29l19 -50l36 30q31 25 31 72v234q0 23 -19 23q-5 0 -16 -7l-188 -162q-31 -28 -31 -63v-243q0 -20 20 -20q9 0 17 6z" />
    <glyph glyph-name="R" unicode="R" 
d="M184 362v-305q0 -57 -42 -57q-19 0 -31 13t-12 34v10v610h298q53 0 89.5 -38.5t36.5 -95.5v-38q0 -59 -37 -96t-97 -37h-81l199 -285q16 -22 16 -36q0 -17 -13 -29t-30 -12q-23 0 -43 29l-233 333h-20zM184 447h201q53 0 53 48v33q0 54 -53 54h-201v-135z" />
    <glyph glyph-name="S" unicode="S" 
d="M405 582h-203q-18 0 -18 -12q0 -6 7 -15l307 -396q24 -32 24 -63q0 -40 -28 -68t-70 -28h-210q-45 0 -80 32t-35 74q0 23 12 36t32 13t29 -10t11 -28.5t10 -25t18 -6.5h207q18 0 18 10q0 6 -9 17l-307 396q-22 28 -22 62q0 44 29.5 70.5t76.5 26.5h203q45 0 79.5 -33.5
t34.5 -76.5q0 -22 -11.5 -35.5t-30.5 -13.5q-22 0 -31.5 10.5t-12 37t-30.5 26.5z" />
    <glyph glyph-name="T" unicode="T" 
d="M267 582h-84v-17q0 -56 -42 -56q-43 0 -43 56v102h424v-101v-10q0 -21 -11 -34t-31 -13q-43 0 -43 57v16h-85v-524v-10q0 -21 -11 -34t-31 -13q-43 0 -43 57v524z" />
    <glyph glyph-name="U" unicode="U" 
d="M522 610v-475q0 -59 -36 -97t-93 -38h-168q-54 0 -90.5 37.5t-36.5 93.5v478q0 57 43 57q42 0 42 -57v-474q0 -50 48 -50h157q23 0 36 12t13 34v479q0 56 43 56q42 0 42 -56z" />
    <glyph glyph-name="V" unicode="V" 
d="M310 160l127 327v124q0 56 43 56q42 0 42 -56v-118v-14q0 -10 -8 -29l-163 -422q-12 -28 -40 -28q-30 0 -41 28l-164 422l-3 9q-3 7 -4 13t-1 21v117q0 57 43 57q42 0 42 -57v-123z" />
    <glyph glyph-name="W" unicode="W" 
d="M438 0h-87q-33 0 -42 37q-11 -37 -43 -37h-84q-24 0 -36 21l-44 74q-5 9 -5 21v494q0 56 43 56q42 0 42 -56v-483l24 -42h36l24 42v264q0 56 43 56q42 0 42 -56v-264l24 -42h37l25 42v483q0 56 43 56q42 0 42 -56v-494q0 -10 -7 -24l-41 -71q-14 -21 -36 -21z" />
    <glyph glyph-name="X" unicode="X" 
d="M310 248l-125 -214q-20 -34 -45 -34q-17 0 -29.5 12.5t-12.5 28.5q0 15 13 36l150 256l-150 257q-13 23 -13 36q0 17 12 29t30 12q16 0 24 -6t20 -28l126 -215l125 215q20 34 45 34q16 0 29 -12t13 -29q0 -12 -4.5 -20.5t-8.5 -15.5l-149 -257l149 -256q13 -21 13 -36
q0 -17 -12 -29t-30 -12q-16 0 -24 6t-21 28z" />
    <glyph glyph-name="Y" unicode="Y" 
d="M310 402l127 164v44q0 57 43 57q42 0 42 -57v-73l-170 -219v-261q0 -57 -42 -57q-43 0 -43 57v261l-169 219v73q0 57 43 57q42 0 42 -57v-44z" />
    <glyph glyph-name="Z" unicode="Z" 
d="M214 85h250h9q22 0 35 -11t13 -31q0 -43 -57 -43h-366v54l307 528h-250q-57 0 -57 43q0 42 57 42h367v-55z" />
    <glyph glyph-name="bracketleft" unicode="[" 
d="M313 85h153q57 0 57 -42q0 -43 -57 -43h-301q-17 0 -31 0.5t-23.5 10t-11.5 18t-2 39.5v531q0 43 9.5 55.5t40.5 12.5h18h301q57 0 57 -42q0 -43 -57 -43h-153v-497zM182 85h46v497h-46v-497z" />
    <glyph glyph-name="backslash" unicode="\" 
d="M185 633l325 -556q12 -23 12 -36q0 -17 -12 -29t-30 -12q-15 0 -23.5 6.5t-20.5 27.5l-324 556q-13 22 -13 36q0 17 12 29t30 12q16 0 24 -6t20 -28z" />
    <glyph glyph-name="bracketright" unicode="]" 
d="M307 582h-153q-57 0 -57 42q0 43 57 43h300q16 0 30.5 -0.5t24 -10t11.5 -18t2 -39.5v-530q0 -35 -1 -41t-10 -15t-17.5 -11t-39.5 -2h-300q-57 0 -57 43t57 43h153v496zM437 582h-45v-496h45v496z" />
    <glyph glyph-name="asciicircum" unicode="^" 
d="M310 490l-127 -185q-14 -20 -35 -20q-17 0 -28 10t-11 27q0 10 10 31l149 283q16 31 42 31q15 0 23.5 -6t17.5 -25l149 -283q10 -19 10 -31q0 -15 -11 -26t-27 -11q-22 0 -36 20z" />
    <glyph glyph-name="underscore" unicode="_" 
d="M531 -173h-442q-57 0 -57 43q0 42 57 42h442q57 0 57 -42q0 -43 -57 -43z" />
    <glyph glyph-name="grave" unicode="`" 
d="M281 545l-56 37q-29 18 -29 40q0 18 13 32t30 14q14 0 33 -13l57 -37q28 -18 28 -40q0 -18 -13 -32t-30 -14q-13 0 -33 13z" />
    <glyph glyph-name="a" unicode="a" 
d="M422 286l-2 44q0 28 -14 39t-47 11h-101q-40 0 -54 8.5t-14 32.5q0 41 50 41h18h112q59 0 95.5 -33.5t36.5 -90.5l9 -268l1 -22q0 -48 -39 -48q-42 0 -42 41l-66 -33q-16 -8 -31 -8h-100q-54 0 -90 34t-36 86v57q0 46 37 79t89 33h147zM427 129l-2 31q0 47 -47 47h-143
q-20 0 -32.5 -11.5t-12.5 -29.5v-44q0 -17 12.5 -28.5t30.5 -11.5h101z" />
    <glyph glyph-name="b" unicode="b" 
d="M190 402l34 32q18 16 34.5 22t46.5 6h42q35 0 50 -4t33 -18l45 -38q17 -14 27 -35t10 -43v-186q0 -46 -37 -78l-45 -38q-16 -13 -33.5 -17.5t-49.5 -4.5h-42q-50 0 -81 28l-34 32v-13q0 -47 -41 -47q-23 0 -31 13t-9 22t-1 33v495q0 30 1 37t11 19.5t29 12.5q23 0 31 -13
t9 -22t1 -34v-161zM417 343l-31 25q-16 12 -30 12h-45q-16 0 -22.5 -2t-17.5 -12l-63 -53q-15 -13 -16.5 -21t-1.5 -28v-66q0 -25 2 -31.5t16 -17.5l63 -53q12 -10 17.5 -12t22.5 -2h45q14 0 30 12l31 25q13 9 13 51v122q0 42 -13 51z" />
    <glyph glyph-name="c" unicode="c" 
d="M447 0h-134q-56 0 -87 26l-77 65q-41 33 -41 91v99q0 57 41 90l77 66q29 25 87 25h134q30 0 36.5 -1t19 -11t12.5 -29q0 -24 -14.5 -32.5t-53.5 -8.5h-136q-17 0 -23 -2t-17 -12l-67 -56q-10 -8 -12 -14.5t-2 -28.5v-72q0 -21 2 -27.5t12 -15.5l67 -56q12 -10 17.5 -12
t22.5 -2h136q31 0 37 -1t18.5 -11t12.5 -29q0 -23 -13 -31t-22 -9t-33 -1z" />
    <glyph glyph-name="d" unicode="d" 
d="M430 402v161q0 31 1 38t11 19t29 12q23 0 31 -13t9 -22t1 -34v-495v-13q0 -11 -0.5 -19.5t-7.5 -19.5q-14 -16 -33 -16q-41 0 -41 47v13l-34 -32q-18 -16 -34.5 -22t-46.5 -6h-42q-35 0 -50.5 4t-32.5 18l-45 38q-37 31 -37 78v186q0 48 37 78l45 38q16 13 34 17.5
t49 4.5h42q50 0 81 -28zM190 292v-122q0 -42 13 -51l31 -25q16 -12 30 -12h45q16 0 22.5 2t17.5 12l63 53q15 13 16.5 21t1.5 28v66v11q0 16 -3 22t-15 16l-63 53q-12 10 -17.5 12t-22.5 2h-45q-14 0 -30 -12l-31 -25q-13 -9 -13 -51z" />
    <glyph glyph-name="e" unicode="e" 
d="M190 171v-19q0 -11 1.5 -18.5t11.5 -15.5l24 -23q16 -13 40 -13h176q29 0 36.5 -1t19.5 -11t12 -29q0 -24 -14.5 -32.5t-53.5 -8.5h-173q-37 0 -50.5 3t-26.5 13l-51 44q-20 17 -27 37t-7 62v156q0 53 32 80l46 40q31 27 88 27h80q43 0 72 -23l50 -40q35 -29 35 -90v-70
q0 -17 -0.5 -31t-10 -23.5t-18 -11.5t-39.5 -2h-253zM429 253v56q0 22 -12 34l-26 22q-16 15 -34 15h-90q-19 0 -35 -12l-25 -21q-11 -8 -14 -16t-3 -28v-50h239z" />
    <glyph glyph-name="f" unicode="f" 
d="M311 462h61q30 0 36.5 -1t19 -11t12.5 -29q0 -23 -13 -31t-22 -9t-33 -1h-61v-312v-13q0 -21 -1 -25.5t-10.5 -17t-29.5 -12.5q-23 0 -31 13t-9 22t-1 33v312h-12q-40 0 -54 8.5t-14 32.5t14.5 32.5t53.5 8.5h12v28q0 66 41 104t114 38h59q31 0 37.5 -1t19 -11t12.5 -29
q0 -23 -13 -31t-22 -9t-34 -1h-64q-68 0 -68 -60v-28z" />
    <glyph glyph-name="g" unicode="g" 
d="M387 438l43 -33q0 57 41 57q23 0 31 -13t9 -22t1 -33v-402q0 -49 -5 -65.5t-28 -35.5l-43 -37q-33 -29 -84 -29h-136h-13q-21 0 -25.5 1t-17 11t-12.5 29q0 41 50 41h18h131q26 0 39 12l33 26q7 6 9 13.5t2 29.5v105l-36 -33q-18 -15 -32 -20t-42 -5h-60q-28 0 -40.5 3
t-25.5 14l-46 40q-40 34 -40 81v145q0 56 40 87l37 29q36 28 76 28h56q41 0 70 -24zM190 303v-109q0 -30 11 -40l30 -26q12 -11 33 -11h51q15 0 33 15l62 50q12 11 16 18.5t4 19.5v57q0 14 -3 20.5t-17 17.5l-62 50q-18 15 -33 15h-51q-12 0 -18.5 -2t-14.5 -9l-30 -26
q-11 -10 -11 -40z" />
    <glyph glyph-name="h" unicode="h" 
d="M190 391l76 49q34 22 72 22h45q57 0 89.5 -34.5t32.5 -96.5l6 -262v-7l1 -14q0 -48 -40 -48q-25 0 -33 14t-9 24t-1 29l-5 252q0 35 -10 48t-38 13h-28q-19 0 -22.5 -1t-19.5 -11l-116 -72v-228q0 -40 -8.5 -54t-32.5 -14q-23 0 -31 13t-9 22t-1 33v495q0 30 1 37
t11 19.5t29 12.5q23 0 31 -13t9 -22t1 -34v-172z" />
    <glyph glyph-name="i" unicode="i" 
d="M271 380h-53h-13q-11 0 -20 0.5t-20 7.5q-16 14 -16 33q0 41 50 41h19h67q16 0 30.5 -0.5t24 -10t11.5 -18t2 -39.5v-312h50q30 0 37 -1t19.5 -11t12.5 -29q0 -23 -13 -31t-22 -9t-34 -1h-185h-13q-11 0 -20 0.5t-20 7.5q-16 14 -16 33q0 23 13 31t22 9t34 1h53v298z
M353 608v-11q0 -47 -49 -47h-14q-35 0 -49 10t-14 37v11q0 34 10 46.5t38 12.5h15q40 0 51.5 -10.5t11.5 -48.5z" />
    <glyph glyph-name="j" unicode="j" 
d="M389 380h-88h-13q-11 0 -20 0.5t-20 7.5q-16 14 -16 33q0 41 50 41h19h102q16 0 30.5 -0.5t24 -10t11.5 -18t2 -39.5v-427q0 -142 -136 -142h-64q-48 0 -86 33t-38 77q0 16 12 28t30 12q31 0 41.5 -34t42.5 -34h71q26 0 35.5 12.5t9.5 47.5v413zM423 550h-14
q-35 0 -49 10t-14 37v11q0 34 10 46.5t38 12.5h15q34 0 48 -10t14 -37v-19q0 -15 -6 -33t-42 -18z" />
    <glyph glyph-name="k" unicode="k" 
d="M190 270l197 166q19 16 28 21t18 5q17 0 29.5 -11.5t12.5 -29.5q0 -14 -5 -20.5t-31 -28.5l-151 -125l188 -156q25 -21 30.5 -28.5t5.5 -20.5q0 -18 -12 -30t-30 -12q-10 0 -17 4t-30 23l-199 165l-34 -31v-93q0 -40 -8.5 -54t-32.5 -14q-23 0 -31 13t-9 22t-1 33v495
q0 30 1 37t11 19.5t29 12.5q23 0 31 -13t9 -22t1 -34v-293z" />
    <glyph glyph-name="l" unicode="l" 
d="M271 550h-54h-13q-21 0 -25.5 1t-17 11t-12.5 29q0 23 13 31t22 9t33 1h68q16 0 30.5 -0.5t24 -10t11.5 -18t2 -39.5v-482h50q30 0 37 -1t19.5 -11t12.5 -29q0 -23 -13 -31t-22 -9t-34 -1h-186h-13q-11 0 -19.5 0.5t-19.5 7.5q-16 14 -16 33q0 23 13 31t22 9t33 1h54v468
z" />
    <glyph glyph-name="m" unicode="m" 
d="M190 429l18 15q23 18 52 18q44 0 75 -41l18 18q24 23 60 23q42 0 66 -27t24 -78l8 -288l1 -7v-7v-7q0 -48 -40 -48q-24 0 -33.5 14.5t-9.5 52.5l-8 271q0 20 -3.5 26t-14.5 6q-8 0 -16 -9l-37 -37v-256v-13q0 -21 -1 -25.5t-10.5 -17t-29.5 -12.5q-23 0 -31 13t-9 22
t-1 33v274q0 29 -19 29q-8 0 -14 -6l-45 -41v-256v-13q0 -21 -1 -25.5t-11 -17t-29 -12.5q-23 0 -31 13t-9 22t-1 33v346q0 21 11.5 34.5t30.5 13.5q30 0 40 -33z" />
    <glyph glyph-name="n" unicode="n" 
d="M190 391l76 49q35 22 72 22h45q57 0 89.5 -34.5t32.5 -96.5l6 -262v-7l1 -14q0 -48 -40 -48q-24 0 -32.5 14t-9.5 24t-1 29l-5 252q0 35 -10 48t-38 13h-27q-19 0 -23 -1t-20 -11l-116 -72v-228v-13q0 -21 -1 -25.5t-11 -17t-29 -12.5q-23 0 -31 13t-9 22t-1 33v326
q0 29 1 36.5t11 19.5t29 12q41 0 41 -60v-11z" />
    <glyph glyph-name="o" unicode="o" 
d="M473 58l-32 -26q-38 -32 -88 -32h-87q-50 0 -88 32l-32 26q-38 32 -38 85v176q0 55 38 85l32 26q21 18 40 25t48 7h87q28 0 47.5 -7t40.5 -25l32 -26q38 -30 38 -85v-176q0 -53 -38 -85zM277 82h65q17 0 26.5 3t20.5 12l23 18q17 14 17 38v156q0 24 -17 38l-23 18
q-18 15 -47 15h-65q-16 0 -26.5 -3t-20.5 -12l-23 -18q-17 -14 -17 -38v-156q0 -24 17 -38l23 -18q19 -15 47 -15z" />
    <glyph glyph-name="p" unicode="p" 
d="M190 46v-154v-13q0 -10 -0.5 -19t-7.5 -20q-14 -16 -33 -16q-23 0 -31 13t-9 22t-1 33v502q0 29 1 36.5t11 19.5t29 12q41 0 41 -47v-17l32 29q25 23 39 29t39 6h20q25 0 40.5 -6t39.5 -25l66 -52q25 -20 35 -42.5t10 -59.5v-110q0 -39 -9.5 -60.5t-35.5 -41.5l-66 -52
q-24 -19 -39 -25t-41 -6h-20q-25 0 -39 6t-39 29zM414 311l-72 61q-10 8 -23 8h-14q-15 0 -32 -17l-67 -63q-10 -9 -13 -16t-3 -22v-80q0 -16 2 -21t14 -16l67 -64q17 -17 32 -17h14q12 0 23 8l72 61q15 13 15 41v96q0 28 -15 41z" />
    <glyph glyph-name="q" unicode="q" 
d="M430 60l-34 -32q-18 -16 -34.5 -22t-46.5 -6h-42q-35 0 -50.5 4t-32.5 18l-45 38q-37 31 -37 78v186q0 48 37 78l45 38q16 13 34 17.5t49 4.5h42q50 0 81 -28l34 -32v13q0 47 41 47q23 0 31 -13t9 -22t1 -33v-501v-13q0 -21 -1 -25.5t-11 -17t-29 -12.5q-24 0 -32.5 14.5
t-8.5 53.5v167zM203 119l31 -25q16 -12 30 -12h45q16 0 22.5 2t17.5 12l63 53q15 13 16.5 21t1.5 28v66v11q0 16 -3 22t-15 16l-63 53q-12 10 -17.5 12t-22.5 2h-45q-14 0 -30 -12l-31 -25q-13 -9 -13 -51v-122q0 -42 13 -51z" />
    <glyph glyph-name="r" unicode="r" 
d="M190 374l73 59q21 17 37.5 23t45.5 6h37q59 0 94 -34t35 -93q0 -56 -41 -56q-19 0 -30 12t-11 34v10q0 45 -43 45h-33q-17 0 -23.5 -2t-17.5 -12l-123 -101v-197q0 -40 -8.5 -54t-32.5 -14q-23 0 -31 13t-9 22t-1 33v326q0 29 1 36.5t11 19.5t29 12q23 0 31 -13t9 -22
t1 -33v-20z" />
    <glyph glyph-name="s" unicode="s" 
d="M238 462h146q31 0 45.5 -4t29.5 -16l23 -20q19 -16 19 -35q0 -17 -12 -29t-30 -12q-13 0 -19.5 3.5t-18 17t-37.5 13.5h-146q-34 0 -34 -24q0 -10 4 -14t24 -13l208 -94q38 -18 55 -44.5t17 -69.5q0 -53 -35 -87t-91 -34h-148q-58 0 -84 19l-20 16q-26 19 -26 39
q0 17 12 29t31 12q17 0 35 -18q12 -15 52 -15h132q55 0 55 45q0 24 -30 38l-213 97q-64 28 -64 96q0 48 32 76t88 28z" />
    <glyph glyph-name="t" unicode="t" 
d="M273 462h127q30 0 36.5 -1t19 -11t12.5 -29q0 -23 -13 -31t-22 -9t-33 -1h-127v-235q0 -35 10 -49t34 -14h64q22 0 31 7t16.5 35t42.5 28q16 0 28 -12t12 -29q0 -15 -8 -34t-31.5 -48t-91.5 -29h-63q-61 0 -87.5 31.5t-32.5 52.5t-6 61v235h-15h-13q-11 0 -19.5 0.5
t-19.5 7.5q-16 14 -16 33q0 41 50 41h18h15v72q0 40 8.5 54t32.5 14q23 0 31 -13t9 -22t1 -33v-72z" />
    <glyph glyph-name="u" unicode="u" 
d="M430 71l-76 -49q-19 -12 -35.5 -17t-36.5 -5h-45q-57 0 -89.5 34.5t-32.5 96.5l-6 262v7l-1 7v7q0 48 40 48q24 0 33.5 -14.5t9.5 -52.5l5 -253q0 -35 10 -47.5t38 -12.5h27q20 0 24 1t19 11l116 72v228q0 30 1 36.5t11 19t29 12.5q23 0 31 -13t9 -22t1 -33v-326v-13
q0 -21 -1 -25.5t-11 -17t-29 -12.5q-23 0 -32 14t-9 50v7z" />
    <glyph glyph-name="v" unicode="v" 
d="M310 86l120 273v35q0 30 1 36.5t11 19t29 12.5q22 0 31.5 -13.5t9.5 -45.5v-23v-19v-6q0 -10 -4.5 -20.5t-10.5 -23.5l-122 -269q-11 -25 -20 -33.5t-24 -8.5h-42q-15 0 -23.5 8t-20.5 34l-122 269l-10 22t-5 23v24v23q0 59 41 59q23 0 31 -13t9 -22t1 -33v-35z" />
    <glyph glyph-name="w" unicode="w" 
d="M396 114l26 76l7 205q0 39 9 53t35 14q39 0 39 -47l-1 -23l-7 -218l-45 -132q-9 -26 -17 -34t-25 -8h-22q-16 0 -22.5 4.5t-22.5 28.5l-40 60l-40 -60q-16 -24 -22.5 -28.5t-22.5 -4.5h-22q-18 0 -25.5 7t-16.5 35l-45 132l-7 218v8l-1 7v8q0 47 39 47q25 0 34.5 -14
t9.5 -53l7 -205l26 -76l45 76v65q0 29 1 36.5t11 19.5t29 12q24 0 32.5 -14.5t8.5 -53.5v-65z" />
    <glyph glyph-name="x" unicode="x" 
d="M310 171l-111 -136q-15 -19 -26.5 -27t-22.5 -8q-17 0 -29.5 12.5t-12.5 30.5q0 10 4 16.5t24 29.5l118 142l-118 142l-12 13q-16 19 -16 33q0 18 12.5 30.5t29.5 12.5q20 0 49 -35l111 -136l111 136q15 19 26.5 27t22.5 8q18 0 30 -12t12 -30q0 -15 -16 -34l-12 -13
l-119 -142l119 -142l12 -13q16 -19 16 -33q0 -18 -12.5 -30.5t-29.5 -12.5q-15 0 -25 8.5t-24 26.5z" />
    <glyph glyph-name="y" unicode="y" 
d="M319 116l111 242v36q0 29 1 36.5t11 19.5t29 12q22 0 31.5 -13.5t9.5 -45.5v-24v-23q0 -12 -4 -21.5t-11 -24.5l-208 -451q-10 -21 -20 -27.5t-31 -6.5h-62q-31 0 -37 1t-18.5 11t-12.5 29q0 41 50 41h18h45l61 127h-11q-14 0 -21 6t-17 28l-110 242q-11 26 -13 31t-2 15
v23v24q0 59 41 59q23 0 31 -13t9 -22t1 -33v-36l111 -242h18z" />
    <glyph glyph-name="z" unicode="z" 
d="M211 82h232q30 0 37 -1t19.5 -11t12.5 -29q0 -23 -13 -31t-22 -9t-34 -1h-267q-17 0 -31 0.5t-23.5 10t-11.5 18t-2 39.5v4q0 16 3 22t20 22l276 264h-208h-13q-11 0 -19.5 0.5t-19.5 7.5q-16 14 -16 33q0 41 50 41h18h244q44 0 56.5 -11.5t12.5 -48.5v-8v-5
q0 -14 -3 -20t-14 -17z" />
    <glyph glyph-name="braceleft" unicode="{" 
d="M353 85h113q57 0 57 -42q0 -43 -57 -43h-113q-35 0 -60 25t-25 60v159q0 20 -12.5 32.5t-34.5 12.5h-64q-57 0 -57 43t57 43h65q46 0 46 50v157q0 36 24.5 60.5t60.5 24.5h113q57 0 57 -42q0 -43 -57 -43h-113v-165q0 -49 -33 -85q33 -36 33 -84v-163z" />
    <glyph glyph-name="bar" unicode="|" 
d="M352 -162h-85v906h85v-906z" />
    <glyph glyph-name="braceright" unicode="}" 
d="M270 85v163q0 48 33 84q-33 36 -33 85v165h-113q-57 0 -57 43q0 42 57 42h113q36 0 60.5 -24.5t24.5 -60.5v-157q0 -50 46 -50h65q57 0 57 -43t-57 -43h-64q-21 0 -34 -12t-13 -33v-159q0 -35 -25 -60t-60 -25h-113q-57 0 -57 43q0 42 57 42h113z" />
    <glyph glyph-name="nonbreakingspace" unicode="&#xa0;" horiz-adv-x="500" 
 />
    <glyph glyph-name="exclamdown" unicode="&#xa1;" 
d="M251 -105l15 276q0 39 9.5 52.5t34.5 13.5q26 0 35.5 -13.5t9.5 -52.5l15 -276l1 -24q0 -46 -47 -46h-14q-35 0 -47.5 9.5t-12.5 36.5zM295 491h15q36 0 50 -10t14 -37v-13q0 -35 -10 -47.5t-39 -12.5h-15q-35 0 -49 10t-14 37v28.5t6 28t42 16.5z" />
    <glyph glyph-name="cent" unicode="&#xa2;" 
d="M372 100v-43q0 -57 -43 -57q-42 0 -42 57v44q-37 4 -61 25l-77 65q-41 35 -41 91v99q0 57 41 90l77 66q24 20 61 24v49q0 57 42 57q43 0 43 -57v-48h74q30 0 36.5 -1t19 -11t12.5 -29q0 -23 -13.5 -31t-20.5 -9t-34 -1h-74v-298h74q31 0 37.5 -1t18.5 -11t12 -29
q0 -23 -13 -31t-22 -9t-33 -1h-74zM287 478l-83 -68q-10 -8 -12 -14t-2 -29v-72q0 -22 2 -28.5t12 -14.5l83 -67v293z" />
    <glyph glyph-name="sterling" unicode="&#xa3;" 
d="M185 386h160q57 0 57 -42q0 -43 -57 -43h-160v-215h280q57 0 57 -43t-57 -43h-365v301h-30q-57 0 -57 43q0 42 57 42h29v100q0 55 41 90l77 66q29 25 87 25h133q31 0 38.5 -1t19 -10.5t11.5 -29.5q0 -23 -15 -32t-54 -9h-135q-25 0 -40 -14l-63 -56q-15 -12 -15 -25
l1 -10v-51v-43z" />
    <glyph glyph-name="yen" unicode="&#xa5;" 
d="M352 312h79q57 0 57 -43t-57 -43h-79v-170q0 -57 -42 -57q-43 0 -43 57v170h-78q-57 0 -57 43t57 43h78v5l-169 219v74q0 56 43 56q42 0 42 -56v-44l127 -164l127 164v44q0 56 43 56q42 0 42 -56v-74l-170 -219v-5z" />
    <glyph glyph-name="section" unicode="&#xa7;" 
d="M232 534l208 -95q72 -32 72 -113q0 -44 -25.5 -76.5t-66.5 -40.5q43 -19 62 -43t19 -62q0 -48 -32 -76t-88 -28h-146q-29 0 -45 4t-30 16l-23 20q-19 16 -19 35q0 17 12 29t30 12q13 0 20 -4t18 -17t38 -13h145q34 0 34 24q0 10 -4 14t-23 13l-209 95q-71 32 -71 113
q0 44 25.5 76.5t66.5 40.5q-44 19 -63 43t-19 62q0 48 32 76t88 28h146q31 0 46.5 -4t28.5 -16l23 -20q19 -15 19 -35q0 -17 -12 -29t-30 -12q-13 0 -20 4t-18 17t-37 13h-146q-34 0 -34 -24q0 -10 4 -14t24 -13zM247 287h123q55 0 55 45q0 24 -30 38l-23 10h-123
q-53 0 -53 -45q0 -17 7.5 -24.5t43.5 -23.5z" />
    <glyph glyph-name="dieresis" unicode="&#xa8;" 
d="M164 592v18q0 57 43 57q42 0 42 -57v-18q0 -57 -42 -57q-43 0 -43 57zM370 592v18q0 57 43 57q42 0 42 -57v-18q0 -57 -42 -57q-43 0 -43 57z" />
    <glyph glyph-name="ordfeminine" unicode="&#xaa;" 
d="M387 547l-1 30q0 34 -42 34h-69q-26 0 -36 6t-10 22t9.5 22t36.5 6h77q40 0 65 -23t25 -62l6 -182v-16q0 -32 -27 -32q-12 0 -20 7t-8 21l-45 -23q-9 -5 -21 -5h-68q-37 0 -61.5 23.5t-24.5 58.5v38q0 32 25.5 54.5t60.5 22.5h100zM390 440v21q0 32 -33 32h-97
q-31 0 -31 -28v-30q0 -11 8 -19t21 -8h69zM430 236h-238q-44 0 -44 33q0 32 44 32h238q43 0 43 -32q0 -33 -43 -33z" />
    <glyph glyph-name="guillemotleft" unicode="&#xab;" 
d="M291 277l265 -176q18 -11 24 -19.5t6 -21.5q0 -18 -11 -30t-29 -12q-8 0 -14 2.5t-21 12.5l-249 165q-29 19 -32.5 25.5t-3.5 41.5v25v16q0 20 4.5 26.5t31.5 24.5l249 165q23 15 35 15q17 0 28.5 -12.5t11.5 -29.5q0 -21 -30 -41zM86 277l265 -176q18 -11 24 -19.5
t6 -21.5q0 -18 -11 -30t-29 -12q-8 0 -14 2.5t-21 12.5l-249 165q-29 19 -32.5 25.5t-3.5 41.5v25q0 35 3.5 41.5t32.5 25.5l249 165q23 15 35 15q17 0 28.5 -12.5t11.5 -29.5q0 -21 -30 -41z" />
    <glyph glyph-name="macron" unicode="&#xaf;" 
d="M190 667h240q55 0 55 -41q0 -42 -55 -42h-240q-56 0 -56 42q0 41 56 41z" />
    <glyph glyph-name="macron" unicode="&#x2c9;" 
d="M190 667h240q55 0 55 -41q0 -42 -55 -42h-240q-56 0 -56 42q0 41 56 41z" />
    <glyph glyph-name="plusminus" unicode="&#xb1;" 
d="M268 374v112q0 57 43 57q42 0 42 -57v-112h112q57 0 57 -42q0 -43 -57 -43h-112v-111q0 -57 -42 -57q-43 0 -43 56v112h-111q-56 0 -56 43q0 42 56 42h111zM466 0h-309q-57 0 -57 43q0 42 57 42h309q56 0 56 -42q0 -43 -56 -43z" />
    <glyph glyph-name="acute" unicode="&#xb4;" 
d="M396 582l-57 -37q-20 -13 -33 -13q-18 0 -30.5 13.5t-12.5 32.5q0 22 29 40l56 37q20 13 33 13q18 0 30.5 -13.5t12.5 -32.5q0 -22 -28 -40z" />
    <glyph glyph-name="paragraph" unicode="&#xb6;" 
d="M275 -117v399q-96 0 -148 49t-52 141q0 57 23 100.5t58.5 63t68.5 25.5t91 6h200q20 0 32 -10t12 -28q0 -38 -44 -38h-7v-708q0 -50 -42 -50q-43 0 -43 50v708h-63v-708q0 -50 -43 -50t-43 50z" />
    <glyph glyph-name="periodcentered" unicode="&#xb7;" 
d="M351 154h-82q-19 0 -31 12t-12 31v71q0 19 12.5 31.5t31.5 12.5h81q20 0 32.5 -12t12.5 -32v-69q0 -45 -45 -45z" />
    <glyph glyph-name="periodcentered" unicode="&#x2219;" 
d="M351 154h-82q-19 0 -31 12t-12 31v71q0 19 12.5 31.5t31.5 12.5h81q20 0 32.5 -12t12.5 -32v-69q0 -45 -45 -45z" />
    <glyph glyph-name="cedilla" unicode="&#xb8;" 
d="M362 -124l-57 -37q-19 -13 -33 -13q-17 0 -30 13t-13 32q0 23 29 41l56 37q20 13 33 13q18 0 30.5 -13.5t12.5 -32.5q0 -22 -28 -40z" />
    <glyph glyph-name="ordmasculine" unicode="&#xba;" 
d="M421 391l-22 -17q-26 -22 -60 -22h-59q-34 0 -60 22l-22 17q-26 23 -26 58v121q0 35 26 58l22 17q25 22 60 22h59q21 0 33 -4.5t27 -17.5l22 -17q26 -23 26 -58v-121q0 -35 -26 -58zM287 408h44q20 0 33 10l15 13q12 9 12 25v107q0 16 -12 25l-15 13q-8 6 -18.5 8
t-14.5 2h-44q-19 0 -32 -10l-15 -13q-12 -9 -12 -25v-107q0 -16 12 -25l15 -13q13 -10 32 -10zM429 236h-238q-44 0 -44 33q0 32 44 32h238q43 0 43 -32q0 -33 -43 -33z" />
    <glyph glyph-name="guillemotright" unicode="&#xbb;" 
d="M328 277l-266 177q-17 11 -23 19t-6 22q0 18 11 30t29 12q8 0 14 -2.5t21 -12.5l249 -165q29 -19 32.5 -25.5t3.5 -41.5v-25v-15q0 -25 -6.5 -31t-29.5 -21l-249 -165q-23 -15 -35 -15q-17 0 -28.5 12.5t-11.5 29.5q0 13 6 21.5t24 19.5zM534 277l-266 177q-17 11 -23 19
t-6 22q0 18 11 30t29 12q8 0 14 -2.5t21 -12.5l249 -165q29 -19 32.5 -25.5t3.5 -41.5v-25v-15q0 -25 -6.5 -31t-29.5 -21l-249 -165q-23 -15 -35 -15q-17 0 -28.5 12.5t-11.5 29.5q0 13 6 21.5t24 19.5z" />
    <glyph glyph-name="onequarter" unicode="&#xbc;" 
d="M553 626l-401 -692q-21 -35 -44 -35q-31 0 -31 29q0 24 15 49l401 689q19 34 41 34q13 0 22.5 -10.5t9.5 -25.5t-13 -38zM160 357h43v91q0 37 29 37t29 -37v-118q0 -12 -8 -21t-19 -9h-196q-38 0 -38 29q0 28 38 28h64v286h-64q-38 0 -38 29q0 28 38 28h122v-343zM442 84
h94v134q0 37 29 37t29 -37v-134q26 -4 26 -29q0 -22 -26 -28v-92q0 -37 -29 -37t-29 37v92h-152v234q0 37 29 37t29 -37v-177z" />
    <glyph glyph-name="onehalf" unicode="&#xbd;" 
d="M546 626l-401 -692q-21 -35 -44 -35q-30 0 -30 29q0 25 14 49l401 689q20 34 41 34q13 0 22.5 -10.5t9.5 -25.5q0 -17 -13 -38zM160 357h43v91q0 37 29 37t29 -37v-118q0 -12 -8 -21t-19 -9h-196q-38 0 -38 29q0 28 38 28h64v286h-64q-38 0 -38 29q0 28 38 28h122v-343z
M417 70v-114h166q37 0 37 -28q0 -29 -37 -29h-225v174q0 23 16 39t40 16h148v114h-166q-38 0 -38 29q0 28 38 28h169q23 0 39 -16t16 -40v-118q0 -24 -15.5 -39.5t-39.5 -15.5h-148z" />
    <glyph glyph-name="threequarters" unicode="&#xbe;" 
d="M553 626l-401 -692q-21 -35 -44 -35q-31 0 -31 29q0 24 15 49l401 689q19 34 41 34q13 0 22.5 -10.5t9.5 -25.5t-13 -38zM442 84h94v134q0 37 29 37t29 -37v-134q26 -4 26 -29q0 -22 -26 -28v-92q0 -37 -29 -37t-29 37v92h-152v234q0 37 29 37t29 -37v-177zM202 643h-164
q-38 0 -38 29q0 28 38 28h168q23 0 38.5 -13.5t15.5 -33.5v-110q0 -25 -18 -43q19 -22 19 -52v-94q0 -23 -15.5 -38.5t-39.5 -15.5h-168q-38 0 -38 29q0 28 38 28h165v87q0 27 -24 27h-90q-38 0 -38 29q0 28 38 28h90q23 0 23 28v87z" />
    <glyph glyph-name="questiondown" unicode="&#xbf;" 
d="M184 -8v-32l42 -36l214 184q23 19 39 19q17 0 30 -13t13 -30q0 -19 -26 -41l-242 -208q-12 -10 -28 -10t-27 10l-86 74q-14 11 -14 34v68q0 21 18 36l235 204v37q0 56 42 56q43 0 43 -56v-59q0 -18 -17 -32zM395 491q18 0 30 -12t12 -30t-12.5 -30.5t-29.5 -12.5
q-18 0 -30.5 12.5t-12.5 29.5q0 18 12.5 30.5t30.5 12.5z" />
    <glyph glyph-name="Agrave" unicode="&#xc0;" 
d="M408 108h-196l-26 -66q-17 -42 -44 -42q-17 0 -30 12t-13 30q0 10 8 31l163 419q12 28 39 28q31 0 41 -28l163 -419q8 -21 8 -31q0 -18 -13 -30t-31 -12q-27 0 -43 43zM374 193l-65 166l-64 -166h129zM281 545l-57 37q-28 18 -28 40q0 18 13 32t30 14q13 0 33 -13l56 -37
q29 -18 29 -40q0 -18 -13 -32t-30 -14q-13 0 -33 13z" />
    <glyph glyph-name="Aacute" unicode="&#xc1;" 
d="M408 108h-196l-26 -66q-17 -42 -44 -42q-17 0 -30 12t-13 30q0 10 8 31l163 419q12 28 39 28q31 0 41 -28l163 -419q8 -21 8 -31q0 -18 -13 -30t-31 -12q-27 0 -43 43zM374 193l-65 166l-64 -166h129zM395 582l-57 -37q-20 -13 -32 -13q-18 0 -30.5 13.5t-12.5 32.5
q0 22 28 40l57 37q19 13 32 13q18 0 30.5 -13.5t12.5 -32.5q0 -21 -28 -40z" />
    <glyph glyph-name="Acircumflex" unicode="&#xc2;" 
d="M408 108h-196l-26 -66q-17 -42 -44 -42q-17 0 -30 12t-13 30q0 10 8 31l163 419q12 28 39 28q31 0 41 -28l163 -419q8 -21 8 -31q0 -18 -13 -30t-31 -12q-27 0 -43 43zM374 193l-65 166l-64 -166h129zM327 580h-35l-54 -35q-19 -13 -32 -13q-18 0 -30.5 13.5t-12.5 32.5
q0 22 28 40l57 37q18 12 34 12h55q17 0 35 -12l56 -37q29 -18 29 -40q0 -18 -13 -32t-30 -14q-13 0 -33 13z" />
    <glyph glyph-name="Atilde" unicode="&#xc3;" 
d="M408 108h-196l-26 -66q-17 -42 -44 -42q-17 0 -30 12t-13 30q0 10 8 31l163 419q12 28 39 28q31 0 41 -28l163 -419q8 -21 8 -31q0 -18 -13 -30t-31 -12q-27 0 -43 43zM374 193l-65 166l-64 -166h129zM314 644l22 -15q13 -8 21.5 -11.5t16.5 -3.5q15 0 23 26t42 26
q18 0 29.5 -10.5t11.5 -26.5q0 -38 -32 -66t-76 -28q-20 0 -33.5 4t-31.5 17l-15 11l-15 8q-20 13 -35 13q-14 0 -22.5 -26t-42.5 -26q-18 0 -29.5 10.5t-11.5 26.5q0 39 31.5 66.5t75.5 27.5q35 0 71 -23z" />
    <glyph glyph-name="Adieresis" unicode="&#xc4;" 
d="M409 108h-197l-26 -66q-17 -42 -44 -42q-17 0 -30 12t-13 30q0 8 2.5 15t5.5 16l163 419q12 28 39 28q30 0 42 -28l162 -419q8 -19 8 -31q0 -17 -12.5 -29.5t-30.5 -12.5q-27 0 -44 43zM375 193l-65 166l-65 -166h130zM183 610v-43q0 -57 -42 -57q-43 0 -43 57v43
q0 57 43 57q42 0 42 -57zM522 610v-43q0 -57 -42 -57q-43 0 -43 57v43q0 57 43 57q42 0 42 -57z" />
    <glyph glyph-name="Aring" unicode="&#xc5;" 
d="M406 144h-191l-29 -100q-7 -27 -16.5 -36.5t-28.5 -9.5q-18 0 -30 12t-12 30q0 11 5 27l107 368q-33 7 -52 29t-19 53v64q0 36 24 61t61 25h168q37 0 61.5 -24.5t24.5 -61.5v-61q0 -69 -73 -85l110 -368q5 -20 5 -27q0 -18 -12 -30t-30 -12t-28 10t-17 36zM379 229
l-60 206h-20l-59 -206h139zM393 520v62h-168v-62h168z" />
    <glyph glyph-name="AE" unicode="&#xc6;" 
d="M379 582l12 -207h94q56 0 56 -42q0 -43 -56 -43h-88l12 -204h100q57 0 57 -43t-57 -43h-129q-55 0 -55 45l-5 101h-128l-40 -104q-10 -26 -18.5 -34.5t-25.5 -8.5q-18 0 -30 12t-12 29q0 5 2 15t4 15l213 567q11 30 44 30h180q57 0 57 -42q0 -43 -57 -43h-130zM316 231
l-11 233l-81 -233h92z" />
    <glyph glyph-name="Ccedilla" unicode="&#xc7;" 
d="M466 0h-149q-35 0 -65.5 19.5t-46.5 52.5l-88 178q-19 38 -19 83q0 22 5 43t14 41l88 178q35 72 117 72h144q56 0 56 -42q0 -43 -56 -43h-141q-30 0 -44 -26l-84 -169q-13 -26 -13 -55q0 -24 13 -51l82 -167q15 -29 49 -29h138q56 0 56 -42q0 -43 -56 -43zM428 -124
l-56 -37q-20 -13 -33 -13q-17 0 -30 13t-13 32q0 23 28 41l57 37q20 13 33 13q18 0 30.5 -13.5t12.5 -32.5q0 -22 -29 -40z" />
    <glyph glyph-name="Egrave" unicode="&#xc8;" 
d="M183 85h282q57 0 57 -42q0 -43 -57 -43h-367v520h367q57 0 57 -42q0 -43 -57 -43h-282v-133h114q57 0 57 -42q0 -43 -57 -43h-114v-132zM281 545l-56 37q-29 18 -29 40q0 18 13 32t30 14q14 0 33 -13l57 -37q28 -18 28 -40q0 -18 -13 -32t-30 -14q-13 0 -33 13z" />
    <glyph glyph-name="Eacute" unicode="&#xc9;" 
d="M183 85h282q57 0 57 -42q0 -43 -57 -43h-367v520h367q57 0 57 -42q0 -43 -57 -43h-282v-133h114q57 0 57 -42q0 -43 -57 -43h-114v-132zM395 582l-56 -37q-20 -13 -33 -13q-18 0 -30.5 13.5t-12.5 32.5q0 22 28 40l57 37q19 13 33 13q18 0 30.5 -13.5t12.5 -32.5
q0 -22 -29 -40z" />
    <glyph glyph-name="Ecircumflex" unicode="&#xca;" 
d="M183 85h282q57 0 57 -42q0 -43 -57 -43h-367v520h367q57 0 57 -42q0 -43 -57 -43h-282v-133h114q57 0 57 -42q0 -43 -57 -43h-114v-132zM328 580h-36l-53 -35q-20 -13 -33 -13q-18 0 -30.5 13.5t-12.5 32.5q0 22 28 40l57 37q18 12 34 12h56q16 0 34 -12l57 -37
q28 -18 28 -40q0 -18 -13 -32t-30 -14q-13 0 -33 13z" />
    <glyph glyph-name="Edieresis" unicode="&#xcb;" 
d="M183 85h282q57 0 57 -42q0 -43 -57 -43h-367v520h367q57 0 57 -42q0 -43 -57 -43h-282v-133h114q57 0 57 -42q0 -43 -57 -43h-114v-132zM164 592v18q0 57 43 57q42 0 42 -57v-18q0 -57 -42 -57q-43 0 -43 57zM370 592v18q0 57 43 57q42 0 42 -57v-18q0 -57 -42 -57
q-43 0 -43 57z" />
    <glyph glyph-name="Igrave" unicode="&#xcc;" 
d="M353 435v-350h112q57 0 57 -42q0 -43 -57 -43h-308q-57 0 -57 43q0 42 57 42h111v350h-113q-57 0 -57 43q0 42 57 42h310q57 0 57 -42q0 -43 -57 -43h-112zM281 545l-56 37q-29 18 -29 40q0 18 13 32t30 14q14 0 33 -13l57 -37q28 -18 28 -40q0 -18 -13 -32t-30 -14
q-13 0 -33 13z" />
    <glyph glyph-name="Iacute" unicode="&#xcd;" 
d="M353 435v-350h112q57 0 57 -42q0 -43 -57 -43h-308q-57 0 -57 43q0 42 57 42h111v350h-113q-57 0 -57 43q0 42 57 42h310q57 0 57 -42q0 -43 -57 -43h-112zM395 582l-56 -37q-20 -13 -33 -13q-18 0 -30.5 13.5t-12.5 32.5q0 22 28 40l57 37q19 13 33 13q18 0 30.5 -13.5
t12.5 -32.5q0 -22 -29 -40z" />
    <glyph glyph-name="Icircumflex" unicode="&#xce;" 
d="M353 435v-350h112q57 0 57 -42q0 -43 -57 -43h-308q-57 0 -57 43q0 42 57 42h111v350h-113q-57 0 -57 43q0 42 57 42h310q57 0 57 -42q0 -43 -57 -43h-112zM328 580h-36l-53 -35q-20 -13 -33 -13q-18 0 -30.5 13.5t-12.5 32.5q0 22 28 40l57 37q18 12 34 12h56
q16 0 34 -12l57 -37q28 -18 28 -40q0 -18 -13 -32t-30 -14q-13 0 -33 13z" />
    <glyph glyph-name="Idieresis" unicode="&#xcf;" 
d="M353 435v-350h112q57 0 57 -42q0 -43 -57 -43h-308q-57 0 -57 43q0 42 57 42h111v350h-113q-57 0 -57 43q0 42 57 42h310q57 0 57 -42q0 -43 -57 -43h-112zM164 592v18q0 57 43 57q42 0 42 -57v-18q0 -57 -42 -57q-43 0 -43 57zM370 592v18q0 57 43 57q42 0 42 -57v-18
q0 -57 -42 -57q-43 0 -43 57z" />
    <glyph glyph-name="Eth" unicode="&#xd0;" 
d="M182 293h-17q-57 0 -57 43t57 43h17v203h-28q-57 0 -57 43q0 42 57 42h147q77 0 115 -75l84 -171q21 -41 21 -85q0 -50 -20 -90l-87 -175q-36 -71 -121 -71h-139q-57 0 -57 43t57 43h28v207zM267 293v-207h29q30 0 44 27l84 171q12 23 12 49q0 16 -3 26.5t-14 31.5
l-81 164q-7 16 -16.5 21.5t-27.5 5.5h-27v-203h53q57 0 57 -43t-57 -43h-53z" />
    <glyph glyph-name="Ntilde" unicode="&#xd1;" 
d="M437 134v329q0 57 42 57q43 0 43 -57v-463h-106l-233 381v-324q0 -57 -42 -57q-43 0 -43 57v463h107zM314 644l23 -15q14 -9 21 -12t16 -3q14 0 22.5 26t42.5 26q18 0 29.5 -10.5t11.5 -26.5q0 -38 -32 -66t-76 -28q-20 0 -32.5 4t-31.5 17l-16 11l-14 8q-20 13 -35 13
q-14 0 -22.5 -26t-42.5 -26q-18 0 -29.5 10.5t-11.5 26.5q0 39 31.5 66.5t75.5 27.5q35 0 70 -23z" />
    <glyph glyph-name="Ograve" unicode="&#xd2;" 
d="M207 60l-87 129q-23 33 -23 69q0 30 18 60l92 153q34 59 103 59q30 0 56.5 -15.5t43.5 -43.5l95 -153q17 -28 17 -61q0 -34 -20 -62l-97 -145q-16 -24 -40.5 -37t-54.5 -13q-63 0 -103 60zM336 98l96 144q5 8 5 14q0 8 -7 20l-93 152q-10 17 -28 17q-17 0 -28 -17
l-91 -148q-6 -9 -7 -12.5t-1 -8.5q0 -9 6 -17l93 -141q11 -16 28 -16t27 13zM281 545l-57 37q-28 18 -28 40q0 18 13 32t30 14q13 0 33 -13l56 -37q29 -18 29 -40q0 -18 -13 -32t-30 -14q-13 0 -33 13z" />
    <glyph glyph-name="Oacute" unicode="&#xd3;" 
d="M207 60l-87 129q-23 33 -23 69q0 30 18 60l92 153q34 59 103 59q30 0 56.5 -15.5t43.5 -43.5l95 -153q17 -28 17 -61q0 -34 -20 -62l-97 -145q-16 -24 -40.5 -37t-54.5 -13q-63 0 -103 60zM336 98l96 144q5 8 5 14q0 8 -7 20l-93 152q-10 17 -28 17q-17 0 -28 -17
l-91 -148q-6 -9 -7 -12.5t-1 -8.5q0 -9 6 -17l93 -141q11 -16 28 -16t27 13zM395 582l-57 -37q-20 -13 -32 -13q-18 0 -30.5 13.5t-12.5 32.5q0 23 28 40l57 37q19 13 32 13q18 0 30.5 -13.5t12.5 -32.5q0 -21 -28 -40z" />
    <glyph glyph-name="Ocircumflex" unicode="&#xd4;" 
d="M207 60l-87 129q-23 33 -23 69q0 30 18 60l92 153q34 59 103 59q30 0 56.5 -15.5t43.5 -43.5l95 -153q17 -28 17 -61q0 -34 -20 -62l-97 -145q-16 -24 -40.5 -37t-54.5 -13q-63 0 -103 60zM336 98l96 144q5 8 5 14q0 8 -7 20l-93 152q-10 17 -28 17q-17 0 -28 -17
l-91 -148q-6 -9 -7 -12.5t-1 -8.5q0 -9 6 -17l93 -141q11 -16 28 -16t27 13zM327 580h-35l-54 -35q-19 -13 -32 -13q-18 0 -30.5 13.5t-12.5 32.5q0 22 28 40l57 37q18 12 34 12h55q17 0 35 -12l56 -37q29 -18 29 -40q0 -18 -13 -32t-30 -14q-14 0 -33 13z" />
    <glyph glyph-name="Otilde" unicode="&#xd5;" 
d="M207 60l-87 129q-23 33 -23 69q0 30 18 60l92 153q34 59 103 59q30 0 56.5 -15.5t43.5 -43.5l95 -153q17 -28 17 -61q0 -34 -20 -62l-97 -145q-16 -24 -40.5 -37t-54.5 -13q-63 0 -103 60zM336 98l96 144q5 8 5 14q0 8 -7 20l-93 152q-10 17 -28 17q-17 0 -28 -17
l-91 -148q-6 -9 -7 -12.5t-1 -8.5q0 -9 6 -17l93 -141q11 -16 28 -16t27 13zM314 644l22 -15q13 -8 21.5 -11.5t16.5 -3.5q14 0 22.5 26t42.5 26q18 0 29.5 -10.5t11.5 -26.5q0 -38 -32 -66t-76 -28q-20 0 -33.5 4t-31.5 17l-15 11l-15 8q-20 13 -35 13t-23 -26t-42 -26
q-18 0 -29.5 10.5t-11.5 26.5q0 39 31.5 66.5t75.5 27.5q35 0 71 -23z" />
    <glyph glyph-name="Odieresis" unicode="&#xd6;" 
d="M207 60l-87 129q-23 33 -23 69q0 30 18 60l92 153q34 59 103 59q30 0 56.5 -15.5t43.5 -43.5l95 -153q17 -28 17 -61q0 -34 -20 -62l-97 -145q-16 -24 -40.5 -37t-54.5 -13q-63 0 -103 60zM336 98l96 144q5 8 5 14q0 8 -7 20l-93 152q-10 17 -28 17q-17 0 -28 -17
l-91 -148q-6 -9 -7 -12.5t-1 -8.5q0 -9 6 -17l93 -141q11 -16 28 -16t27 13zM97 565v45q0 57 43 57q42 0 42 -57v-45q0 -56 -42 -56q-43 0 -43 56zM437 565v45q0 57 43 57q42 0 42 -57v-45q0 -56 -42 -56q-43 0 -43 56z" />
    <glyph glyph-name="multiply" unicode="&#xd7;" 
d="M250 331l-79 79q-23 22 -23 39q0 19 12.5 31.5t31.5 12.5q17 0 39 -23l79 -79l80 79q22 23 39 23q19 0 31.5 -12.5t12.5 -31.5q0 -16 -23 -39l-79 -79l79 -79q22 -23 22 -39q0 -19 -12.5 -31.5t-31.5 -12.5q-8 0 -17.5 5.5t-21.5 16.5l-78 79l-79 -78q-22 -23 -39 -23
q-19 0 -31.5 12.5t-12.5 31.5q0 17 23 39z" />
    <glyph glyph-name="Oslash" unicode="&#xd8;" 
d="M161 161l-43 88q-20 43 -20 88q0 47 20 84l93 183q15 30 40.5 46.5t56.5 16.5q70 0 106 -71l22 39q19 32 44 32q16 0 29 -12t13 -28q0 -12 -4.5 -20.5t-8.5 -15.5l-49 -84l42 -86q21 -45 21 -88q0 -21 -5 -43t-14 -41l-94 -188q-31 -61 -101 -61q-32 0 -59 18t-44 52
l-20 -36q-20 -34 -45 -34q-16 0 -29 12t-13 29q0 14 13 36zM362 508l-28 57q-4 9 -9.5 12.5t-14.5 3.5q-17 0 -24 -16l-86 -173q-9 -19 -13 -32.5t-4 -27.5q0 -16 3 -26t16 -36l10 -21zM257 158l27 -53q11 -20 27 -20q17 0 24 16l88 176q15 30 15 58q0 16 -5 28l-10 24
l-14 33z" />
    <glyph glyph-name="Ugrave" unicode="&#xd9;" 
d="M522 464v-331q0 -56 -36.5 -94.5t-88.5 -38.5h-171q-54 0 -91 38t-37 95v330q0 57 43 57q42 0 42 -57v-330q0 -48 54 -48h144q32 0 44 11t12 43v325q0 56 43 56q42 0 42 -56zM282 545l-57 37q-28 19 -28 40q0 18 13 32t30 14q13 0 32 -13l57 -37q28 -17 28 -40
q0 -18 -13 -32t-30 -14q-12 0 -32 13z" />
    <glyph glyph-name="Uacute" unicode="&#xda;" 
d="M522 464v-331q0 -56 -36.5 -94.5t-88.5 -38.5h-171q-54 0 -91 38t-37 95v330q0 57 43 57q42 0 42 -57v-330q0 -48 54 -48h144q32 0 44 11t12 43v325q0 56 43 56q42 0 42 -56zM396 582l-57 -37q-20 -13 -33 -13q-18 0 -30.5 13.5t-12.5 32.5q0 22 29 40l56 37q20 13 33 13
q18 0 30.5 -13.5t12.5 -32.5q0 -22 -28 -40z" />
    <glyph glyph-name="Ucircumflex" unicode="&#xdb;" 
d="M522 464v-331q0 -56 -36.5 -94.5t-88.5 -38.5h-171q-54 0 -91 38t-37 95v330q0 57 43 57q42 0 42 -57v-330q0 -48 54 -48h144q32 0 44 11t12 43v325q0 56 43 56q42 0 42 -56zM328 580h-35l-54 -35q-19 -13 -33 -13q-18 0 -30.5 13.5t-12.5 32.5q0 22 29 40l56 37
q18 12 35 12h55q17 0 35 -12l56 -37q29 -18 29 -40q0 -18 -13 -32t-30 -14q-14 0 -33 13z" />
    <glyph glyph-name="Udieresis" unicode="&#xdc;" 
d="M522 464v-331q0 -56 -36.5 -94.5t-88.5 -38.5h-171q-54 0 -91 38t-37 95v330q0 57 43 57q42 0 42 -57v-330q0 -48 54 -48h144q32 0 44 11t12 43v325q0 56 43 56q42 0 42 -56zM183 566v44q0 57 43 57q42 0 42 -57v-44q0 -57 -42 -57q-43 0 -43 57zM353 566v44q0 57 43 57
q42 0 42 -57v-44q0 -57 -42 -57q-43 0 -43 57z" />
    <glyph glyph-name="Yacute" unicode="&#xdd;" 
d="M310 255l127 164v44q0 57 43 57q42 0 42 -57v-73l-170 -219v-114q0 -57 -42 -57q-43 0 -43 57v114l-169 219v73q0 57 43 57q42 0 42 -57v-44zM395 582l-56 -37q-20 -13 -33 -13q-18 0 -30.5 13.5t-12.5 32.5q0 22 28 40l57 37q19 13 33 13q18 0 30.5 -13.5t12.5 -32.5
q0 -22 -29 -40z" />
    <glyph glyph-name="Thorn" unicode="&#xde;" 
d="M182 567h212q59 0 94 -37t35 -99v-139q0 -66 -37 -103t-103 -37h-201v-95q0 -57 -42 -57q-43 0 -43 57v553q0 57 43 57q42 0 42 -57v-43zM183 237h206q49 0 49 55v139q0 51 -52 51h-203v-245z" />
    <glyph glyph-name="germandbls" unicode="&#xdf;" 
d="M470 564v-155q0 -39 -29 -68q31 -35 31 -81v-181q0 -33 -23 -56t-56 -23h-113q-53 0 -53 40q0 39 53 39h66q47 0 47 33v142q0 47 -43 47h-39q-52 0 -52 40q0 39 52 39h40q40 0 40 49v67q0 38 -8 46t-45 8h-72q-41 0 -58.5 -13.5t-17.5 -46.5v-522v-13q0 -21 -1 -25.5
t-10.5 -17t-29.5 -12.5q-23 0 -31 13t-9 20.5t-1 34.5v523q0 99 51.5 118t65.5 21t41 2h127q31 0 54 -20t23 -48z" />
    <glyph glyph-name="agrave" unicode="&#xe0;" 
d="M422 286l-2 44q0 28 -14 39t-47 11h-101q-40 0 -54 8.5t-14 32.5q0 41 50 41h18h112q59 0 95.5 -33.5t36.5 -90.5l9 -268l1 -22q0 -48 -39 -48q-42 0 -42 41l-66 -33q-16 -8 -31 -8h-100q-54 0 -90 34t-36 86v57q0 46 37 79t89 33h147zM427 129l-2 31q0 47 -47 47h-143
q-20 0 -32.5 -11.5t-12.5 -29.5v-44q0 -17 12.5 -28.5t30.5 -11.5h101zM281 545l-56 37q-29 18 -29 40q0 18 13 32t30 14q14 0 33 -13l57 -37q28 -18 28 -40q0 -18 -13 -32t-30 -14q-13 0 -33 13z" />
    <glyph glyph-name="aacute" unicode="&#xe1;" 
d="M422 286l-2 44q0 28 -14 39t-47 11h-101q-40 0 -54 8.5t-14 32.5q0 41 50 41h18h112q59 0 95.5 -33.5t36.5 -90.5l9 -268l1 -22q0 -48 -39 -48q-42 0 -42 41l-66 -33q-16 -8 -31 -8h-100q-54 0 -90 34t-36 86v57q0 46 37 79t89 33h147zM427 129l-2 31q0 47 -47 47h-143
q-20 0 -32.5 -11.5t-12.5 -29.5v-44q0 -17 12.5 -28.5t30.5 -11.5h101zM396 582l-57 -37q-20 -13 -33 -13q-18 0 -30.5 13.5t-12.5 32.5q0 22 29 40l56 37q20 13 33 13q18 0 30.5 -13.5t12.5 -32.5q0 -22 -28 -40z" />
    <glyph glyph-name="acircumflex" unicode="&#xe2;" 
d="M422 286l-2 44q0 28 -14 39t-47 11h-101q-40 0 -54 8.5t-14 32.5q0 41 50 41h18h112q59 0 95.5 -33.5t36.5 -90.5l9 -268l1 -22q0 -48 -39 -48q-42 0 -42 41l-66 -33q-16 -8 -31 -8h-100q-54 0 -90 34t-36 86v57q0 46 37 79t89 33h147zM427 129l-2 31q0 47 -47 47h-143
q-20 0 -32.5 -11.5t-12.5 -29.5v-44q0 -17 12.5 -28.5t30.5 -11.5h101zM328 580h-35l-54 -35q-20 -13 -33 -13q-18 0 -30.5 13.5t-12.5 32.5q0 22 29 40l56 37q18 12 35 12h55q16 0 34 -12l57 -37q28 -18 28 -40q0 -18 -13 -32t-30 -14q-13 0 -32 13z" />
    <glyph glyph-name="atilde" unicode="&#xe3;" 
d="M422 286l-2 44q0 28 -14 39t-47 11h-101q-40 0 -54 8.5t-14 32.5q0 41 50 41h18h112q59 0 95.5 -33.5t36.5 -90.5l9 -268l1 -22q0 -48 -39 -48q-42 0 -42 41l-66 -33q-16 -8 -31 -8h-100q-54 0 -90 34t-36 86v57q0 46 37 79t89 33h147zM427 129l-2 31q0 47 -47 47h-143
q-20 0 -32.5 -11.5t-12.5 -29.5v-44q0 -17 12.5 -28.5t30.5 -11.5h101zM314 644l23 -15q14 -9 21 -12t16 -3q14 0 22.5 26t42.5 26q18 0 29.5 -10.5t11.5 -26.5q0 -38 -32 -66t-76 -28q-20 0 -32.5 4t-31.5 17l-16 11l-14 8q-20 13 -35 13q-14 0 -22.5 -26t-42.5 -26
q-18 0 -29.5 10.5t-11.5 26.5q0 39 31.5 66.5t75.5 27.5q35 0 70 -23z" />
    <glyph glyph-name="adieresis" unicode="&#xe4;" 
d="M422 286l-2 44q0 28 -14 39t-47 11h-101q-40 0 -54 8.5t-14 32.5q0 41 50 41h18h112q59 0 95.5 -33.5t36.5 -90.5l9 -268l1 -22q0 -48 -39 -48q-42 0 -42 41l-66 -33q-16 -8 -31 -8h-100q-54 0 -90 34t-36 86v57q0 46 37 79t89 33h147zM427 129l-2 31q0 47 -47 47h-143
q-20 0 -32.5 -11.5t-12.5 -29.5v-44q0 -17 12.5 -28.5t30.5 -11.5h101zM164 592v18q0 57 43 57q42 0 42 -57v-18q0 -57 -42 -57q-43 0 -43 57zM370 592v18q0 57 43 57q42 0 42 -57v-18q0 -57 -42 -57q-43 0 -43 57z" />
    <glyph glyph-name="aring" unicode="&#xe5;" 
d="M430 41l-66 -33q-16 -8 -31 -8h-100q-53 0 -89 34t-36 86v57q0 46 37 79t89 33h146l41 -3l-2 44q0 30 -12 40t-49 10h-137q-41 0 -55 8.5t-14 32.5q0 41 65 41q-23 11 -36 28t-13 37v60q0 34 23 57t57 23h145q35 0 58 -23t23 -57v-60q0 -24 -17 -45t-44 -30
q45 -10 66.5 -37t21.5 -77l10 -268v-22q0 -48 -39 -48q-42 0 -42 41zM248 586v-58h145v58h-145zM426 129l-1 31q0 47 -48 47h-142q-20 0 -32.5 -11.5t-12.5 -29.5v-44q0 -17 12.5 -28.5t29.5 -11.5h102z" />
    <glyph glyph-name="ae" unicode="&#xe6;" 
d="M317 54l-17 -23q-23 -31 -83 -31h-52q-50 0 -81 33t-31 87v57q0 48 32 80t81 32h60q31 0 43 -3v44q0 31 -12.5 40.5t-52.5 9.5h-31q-40 0 -54.5 8.5t-14.5 32.5q0 23 13 31t22 9t34 1h55q51 0 72 -23l23 -24l17 20q22 27 82 27h7q47 0 70 -23l39 -40q35 -36 35 -90v-70
q0 -17 -0.5 -31t-10 -23.5t-18 -11.5t-39.5 -2h-154v-19q0 -13 2 -19t11 -15l20 -23q12 -13 35 -13h86q29 0 36.5 -1t19.5 -11t12 -29q0 -24 -14.5 -32.5t-53.5 -8.5h-87q-35 0 -48.5 3t-21.5 13zM171 82h57l6 2t5 3l26 28l3 7l2 5v39q0 17 -13 29t-32 12h-52q-38 0 -38 -41
v-44q0 -40 36 -40zM491 253v56q0 23 -9 34l-19 22q-13 15 -24 15h-24q-20 0 -31 -12l-20 -21q-13 -14 -13 -43v-51h140z" />
    <glyph glyph-name="ccedilla" unicode="&#xe7;" 
d="M447 0h-134q-56 0 -87 26l-77 65q-41 33 -41 91v99q0 57 41 90l77 66q29 25 87 25h134q30 0 36.5 -1t19 -11t12.5 -29q0 -24 -14.5 -32.5t-53.5 -8.5h-136q-17 0 -23 -2t-17 -12l-67 -56q-10 -8 -12 -14.5t-2 -28.5v-72q0 -21 2 -27.5t12 -15.5l67 -56q12 -10 17.5 -12
t22.5 -2h136q31 0 37 -1t18.5 -11t12.5 -29q0 -23 -13 -31t-22 -9t-33 -1zM388 -124l-56 -37q-20 -13 -33 -13q-17 0 -30 13t-13 32q0 23 28 41l57 37q20 13 33 13q18 0 30.5 -13.5t12.5 -32.5q0 -22 -29 -40z" />
    <glyph glyph-name="egrave" unicode="&#xe8;" 
d="M190 171v-19q0 -11 1.5 -18.5t11.5 -15.5l24 -23q16 -13 40 -13h176q29 0 36.5 -1t19.5 -11t12 -29q0 -24 -14.5 -32.5t-53.5 -8.5h-173q-37 0 -50.5 3t-26.5 13l-51 44q-20 17 -27 37t-7 62v156q0 53 32 80l46 40q31 27 88 27h80q43 0 72 -23l50 -40q35 -29 35 -90v-70
q0 -17 -0.5 -31t-10 -23.5t-18 -11.5t-39.5 -2h-253zM429 253v56q0 22 -12 34l-26 22q-16 15 -34 15h-90q-19 0 -35 -12l-25 -21q-11 -8 -14 -16t-3 -28v-50h239zM281 545l-56 37q-29 18 -29 40q0 18 13 32t30 14q14 0 33 -13l57 -37q28 -18 28 -40q0 -18 -13 -32t-30 -14
q-13 0 -33 13z" />
    <glyph glyph-name="eacute" unicode="&#xe9;" 
d="M190 171v-19q0 -11 1.5 -18.5t11.5 -15.5l24 -23q16 -13 40 -13h176q29 0 36.5 -1t19.5 -11t12 -29q0 -24 -14.5 -32.5t-53.5 -8.5h-173q-37 0 -50.5 3t-26.5 13l-51 44q-20 17 -27 37t-7 62v156q0 53 32 80l46 40q31 27 88 27h80q43 0 72 -23l50 -40q35 -29 35 -90v-70
q0 -17 -0.5 -31t-10 -23.5t-18 -11.5t-39.5 -2h-253zM429 253v56q0 22 -12 34l-26 22q-16 15 -34 15h-90q-19 0 -35 -12l-25 -21q-11 -8 -14 -16t-3 -28v-50h239zM396 582l-57 -37q-20 -13 -33 -13q-18 0 -30.5 13.5t-12.5 32.5q0 22 29 40l56 37q20 13 33 13
q18 0 30.5 -13.5t12.5 -32.5q0 -22 -28 -40z" />
    <glyph glyph-name="ecircumflex" unicode="&#xea;" 
d="M190 171v-19q0 -11 1.5 -18.5t11.5 -15.5l24 -23q16 -13 40 -13h176q29 0 36.5 -1t19.5 -11t12 -29q0 -24 -14.5 -32.5t-53.5 -8.5h-173q-37 0 -50.5 3t-26.5 13l-51 44q-20 17 -27 37t-7 62v156q0 53 32 80l46 40q31 27 88 27h80q43 0 72 -23l50 -40q35 -29 35 -90v-70
q0 -17 -0.5 -31t-10 -23.5t-18 -11.5t-39.5 -2h-253zM429 253v56q0 22 -12 34l-26 22q-16 15 -34 15h-90q-19 0 -35 -12l-25 -21q-11 -8 -14 -16t-3 -28v-50h239zM328 580h-35l-54 -35q-20 -13 -33 -13q-18 0 -30.5 13.5t-12.5 32.5q0 22 29 40l56 37q18 12 35 12h55
q16 0 34 -12l57 -37q28 -18 28 -40q0 -18 -13 -32t-30 -14q-13 0 -32 13z" />
    <glyph glyph-name="edieresis" unicode="&#xeb;" 
d="M190 171v-19q0 -11 1.5 -18.5t11.5 -15.5l24 -23q16 -13 40 -13h176q29 0 36.5 -1t19.5 -11t12 -29q0 -24 -14.5 -32.5t-53.5 -8.5h-173q-37 0 -50.5 3t-26.5 13l-51 44q-20 17 -27 37t-7 62v156q0 53 32 80l46 40q31 27 88 27h80q43 0 72 -23l50 -40q35 -29 35 -90v-70
q0 -17 -0.5 -31t-10 -23.5t-18 -11.5t-39.5 -2h-253zM429 253v56q0 22 -12 34l-26 22q-16 15 -34 15h-90q-19 0 -35 -12l-25 -21q-11 -8 -14 -16t-3 -28v-50h239zM164 592v18q0 57 43 57q42 0 42 -57v-18q0 -57 -42 -57q-43 0 -43 57zM370 592v18q0 57 43 57q42 0 42 -57
v-18q0 -57 -42 -57q-43 0 -43 57z" />
    <glyph glyph-name="igrave" unicode="&#xec;" 
d="M271 380h-54h-13q-11 0 -19.5 0.5t-19.5 7.5q-16 14 -16 33q0 23 13 31t22 9t33 1h68q16 0 30.5 -0.5t24 -10t11.5 -18t2 -39.5v-312h50q30 0 37 -1t19.5 -11t12.5 -29q0 -24 -14.5 -32.5t-54.5 -8.5h-186q-30 0 -37 1t-19 11t-12 29q0 23 13 31t22 9t33 1h54v298z
M281 545l-56 37q-29 18 -29 40q0 18 13 32t30 14q14 0 33 -13l57 -37q28 -18 28 -40q0 -18 -13 -32t-30 -14q-13 0 -33 13z" />
    <glyph glyph-name="iacute" unicode="&#xed;" 
d="M271 380h-54h-13q-11 0 -19.5 0.5t-19.5 7.5q-16 14 -16 33q0 23 13 31t22 9t33 1h68q16 0 30.5 -0.5t24 -10t11.5 -18t2 -39.5v-312h50q30 0 37 -1t19.5 -11t12.5 -29q0 -24 -14.5 -32.5t-54.5 -8.5h-186q-30 0 -37 1t-19 11t-12 29q0 23 13 31t22 9t33 1h54v298z
M396 582l-57 -37q-20 -13 -33 -13q-18 0 -30.5 13.5t-12.5 32.5q0 22 29 40l56 37q20 13 33 13q18 0 30.5 -13.5t12.5 -32.5q0 -22 -28 -40z" />
    <glyph glyph-name="icircumflex" unicode="&#xee;" 
d="M271 380h-54h-13q-11 0 -19.5 0.5t-19.5 7.5q-16 14 -16 33q0 23 13 31t22 9t33 1h68q16 0 30.5 -0.5t24 -10t11.5 -18t2 -39.5v-312h50q30 0 37 -1t19.5 -11t12.5 -29q0 -24 -14.5 -32.5t-54.5 -8.5h-186q-30 0 -37 1t-19 11t-12 29q0 23 13 31t22 9t33 1h54v298z
M328 580h-35l-54 -35q-20 -13 -33 -13q-18 0 -30.5 13.5t-12.5 32.5q0 22 29 40l56 37q18 12 35 12h55q16 0 34 -12l57 -37q28 -18 28 -40q0 -18 -13 -32t-30 -14q-13 0 -32 13z" />
    <glyph glyph-name="idieresis" unicode="&#xef;" 
d="M271 380h-54h-13q-11 0 -19.5 0.5t-19.5 7.5q-16 14 -16 33q0 23 13 31t22 9t33 1h68q16 0 30.5 -0.5t24 -10t11.5 -18t2 -39.5v-312h50q30 0 37 -1t19.5 -11t12.5 -29q0 -24 -14.5 -32.5t-54.5 -8.5h-186q-30 0 -37 1t-19 11t-12 29q0 23 13 31t22 9t33 1h54v298z
M178 592v18q0 57 43 57q42 0 42 -57v-18q0 -57 -42 -57q-43 0 -43 57zM358 592v18q0 57 43 57q42 0 42 -57v-18q0 -57 -42 -57q-43 0 -43 57z" />
    <glyph glyph-name="eth" unicode="&#xf0;" 
d="M340 499l-70 -44q-23 -14 -35 -14q-15 0 -27 12t-12 28q0 15 5.5 23t25.5 20l71 44l-10 17h-12q-40 0 -54 8.5t-14 32.5q0 23 13 31t22 9t33 1h29q22 0 30 -5t20 -29l13 -22l68 43q22 13 34 13q16 0 28 -12t12 -29q0 -13 -6 -21t-25 -20l-70 -44l88 -149q14 -23 14 -73
v-176q0 -53 -38 -85l-32 -26q-38 -32 -88 -32h-87q-50 0 -88 32l-32 26q-38 32 -38 85v109q0 55 38 85l32 26q21 18 40 25t48 7h136zM429 313h-152q-16 0 -26.5 -3t-20.5 -12l-23 -18q-17 -14 -17 -38v-89q0 -24 17 -38l23 -18q18 -15 47 -15h65q17 0 26.5 3t20.5 12l23 18
q17 14 17 38v160z" />
    <glyph glyph-name="ntilde" unicode="&#xf1;" 
d="M190 391l76 49q35 22 72 22h45q57 0 89.5 -34.5t32.5 -96.5l6 -262v-7l1 -14q0 -48 -40 -48q-24 0 -32.5 14t-9.5 24t-1 29l-5 252q0 35 -10 48t-38 13h-27q-19 0 -23 -1t-20 -11l-116 -72v-228v-13q0 -21 -1 -25.5t-11 -17t-29 -12.5q-23 0 -31 13t-9 22t-1 33v326
q0 29 1 36.5t11 19.5t29 12q41 0 41 -60v-11zM314 644l23 -15q14 -9 21 -12t16 -3q14 0 22.5 26t42.5 26q18 0 29.5 -10.5t11.5 -26.5q0 -38 -32 -66t-76 -28q-20 0 -32.5 4t-31.5 17l-16 11l-14 8q-20 13 -35 13q-14 0 -22.5 -26t-42.5 -26q-18 0 -29.5 10.5t-11.5 26.5
q0 39 31.5 66.5t75.5 27.5q35 0 70 -23z" />
    <glyph glyph-name="ograve" unicode="&#xf2;" 
d="M473 58l-32 -26q-38 -32 -88 -32h-87q-50 0 -88 32l-32 26q-38 32 -38 85v176q0 55 38 85l32 26q21 18 40 25t48 7h87q28 0 47.5 -7t40.5 -25l32 -26q38 -30 38 -85v-176q0 -53 -38 -85zM277 82h65q17 0 26.5 3t20.5 12l23 18q17 14 17 38v156q0 24 -17 38l-23 18
q-18 15 -47 15h-65q-16 0 -26.5 -3t-20.5 -12l-23 -18q-17 -14 -17 -38v-156q0 -24 17 -38l23 -18q19 -15 47 -15zM281 545l-56 37q-29 18 -29 40q0 18 13 32t30 14q14 0 33 -13l57 -37q28 -18 28 -40q0 -18 -13 -32t-30 -14q-13 0 -33 13z" />
    <glyph glyph-name="oacute" unicode="&#xf3;" 
d="M473 58l-32 -26q-38 -32 -88 -32h-87q-50 0 -88 32l-32 26q-38 32 -38 85v176q0 55 38 85l32 26q21 18 40 25t48 7h87q28 0 47.5 -7t40.5 -25l32 -26q38 -30 38 -85v-176q0 -53 -38 -85zM277 82h65q17 0 26.5 3t20.5 12l23 18q17 14 17 38v156q0 24 -17 38l-23 18
q-18 15 -47 15h-65q-16 0 -26.5 -3t-20.5 -12l-23 -18q-17 -14 -17 -38v-156q0 -24 17 -38l23 -18q19 -15 47 -15zM396 582l-57 -37q-20 -13 -33 -13q-18 0 -30.5 13.5t-12.5 32.5q0 22 29 40l56 37q20 13 33 13q18 0 30.5 -13.5t12.5 -32.5q0 -22 -28 -40z" />
    <glyph glyph-name="ocircumflex" unicode="&#xf4;" 
d="M473 58l-32 -26q-38 -32 -88 -32h-87q-50 0 -88 32l-32 26q-38 32 -38 85v176q0 55 38 85l32 26q21 18 40 25t48 7h87q28 0 47.5 -7t40.5 -25l32 -26q38 -30 38 -85v-176q0 -53 -38 -85zM277 82h65q17 0 26.5 3t20.5 12l23 18q17 14 17 38v156q0 24 -17 38l-23 18
q-18 15 -47 15h-65q-16 0 -26.5 -3t-20.5 -12l-23 -18q-17 -14 -17 -38v-156q0 -24 17 -38l23 -18q19 -15 47 -15zM328 580h-35l-54 -35q-20 -13 -33 -13q-18 0 -30.5 13.5t-12.5 32.5q0 22 29 40l56 37q18 12 35 12h55q16 0 34 -12l57 -37q28 -18 28 -40q0 -18 -13 -32
t-30 -14q-13 0 -32 13z" />
    <glyph glyph-name="otilde" unicode="&#xf5;" 
d="M473 58l-32 -26q-38 -32 -88 -32h-87q-50 0 -88 32l-32 26q-38 32 -38 85v176q0 55 38 85l32 26q21 18 40 25t48 7h87q28 0 47.5 -7t40.5 -25l32 -26q38 -30 38 -85v-176q0 -53 -38 -85zM277 82h65q17 0 26.5 3t20.5 12l23 18q17 14 17 38v156q0 24 -17 38l-23 18
q-18 15 -47 15h-65q-16 0 -26.5 -3t-20.5 -12l-23 -18q-17 -14 -17 -38v-156q0 -24 17 -38l23 -18q19 -15 47 -15zM314 644l23 -15q14 -9 21 -12t16 -3q14 0 22.5 26t42.5 26q18 0 29.5 -10.5t11.5 -26.5q0 -38 -32 -66t-76 -28q-20 0 -32.5 4t-31.5 17l-16 11l-14 8
q-20 13 -35 13q-14 0 -22.5 -26t-42.5 -26q-18 0 -29.5 10.5t-11.5 26.5q0 39 31.5 66.5t75.5 27.5q35 0 70 -23z" />
    <glyph glyph-name="odieresis" unicode="&#xf6;" 
d="M473 58l-32 -26q-38 -32 -88 -32h-87q-50 0 -88 32l-32 26q-38 32 -38 85v176q0 55 38 85l32 26q21 18 40 25t48 7h87q28 0 47.5 -7t40.5 -25l32 -26q38 -30 38 -85v-176q0 -53 -38 -85zM277 82h65q17 0 26.5 3t20.5 12l23 18q17 14 17 38v156q0 24 -17 38l-23 18
q-18 15 -47 15h-65q-16 0 -26.5 -3t-20.5 -12l-23 -18q-17 -14 -17 -38v-156q0 -24 17 -38l23 -18q19 -15 47 -15zM164 592v18q0 57 43 57q42 0 42 -57v-18q0 -57 -42 -57q-43 0 -43 57zM370 592v18q0 57 43 57q42 0 42 -57v-18q0 -57 -42 -57q-43 0 -43 57z" />
    <glyph glyph-name="divide" unicode="&#xf7;" 
d="M337 122h-52q-28 0 -28 27v46q0 28 28 28h52q9 0 19 -6t10 -22v-44q0 -29 -29 -29zM337 448h-52q-28 0 -28 27v46q0 28 28 28h52q9 0 19 -6t10 -22v-44q0 -29 -29 -29zM466 288h-309q-57 0 -57 43q0 42 57 42h309q56 0 56 -42q0 -43 -56 -43z" />
    <glyph glyph-name="oslash" unicode="&#xf8;" 
d="M460 415l13 -11q38 -32 38 -85v-176q0 -54 -38 -86l-32 -26q-38 -31 -88 -31h-87q-15 0 -23.5 1t-19.5 5l-21 -36q-18 -31 -41 -31q-16 0 -28 11t-12 27q0 11 4.5 19t7.5 14l23 39l-10 8q-38 32 -38 86v176q0 55 38 85l32 26q21 18 40 25t48 7h87l21 -1l12 -2l11 5l21 36
q18 30 41 30q16 0 27.5 -11.5t11.5 -26.5q0 -6 -1.5 -11t-11.5 -22zM417 342l-150 -260h75q17 0 26.5 3t20.5 12l23 18q17 14 17 38v156q0 20 -12 33zM199 123l149 257h-71q-16 0 -26.5 -3t-20.5 -12l-23 -19q-17 -14 -17 -37v-156q0 -17 9 -30z" />
    <glyph glyph-name="ugrave" unicode="&#xf9;" 
d="M430 71l-76 -49q-19 -12 -35.5 -17t-36.5 -5h-45q-57 0 -89.5 34.5t-32.5 96.5l-6 262v7l-1 7v7q0 48 40 48q24 0 33.5 -14.5t9.5 -52.5l5 -253q0 -35 10 -47.5t38 -12.5h27q20 0 24 1t19 11l116 72v228q0 30 1 36.5t11 19t29 12.5q23 0 31 -13t9 -22t1 -33v-326v-13
q0 -21 -1 -25.5t-11 -17t-29 -12.5q-23 0 -32 14t-9 50v7zM281 545l-56 37q-29 18 -29 40q0 18 13 32t30 14q14 0 33 -13l57 -37q28 -18 28 -40q0 -18 -13 -32t-30 -14q-13 0 -33 13z" />
    <glyph glyph-name="uacute" unicode="&#xfa;" 
d="M430 71l-76 -49q-19 -12 -35.5 -17t-36.5 -5h-45q-57 0 -89.5 34.5t-32.5 96.5l-6 262v7l-1 7v7q0 48 40 48q24 0 33.5 -14.5t9.5 -52.5l5 -253q0 -35 10 -47.5t38 -12.5h27q20 0 24 1t19 11l116 72v228q0 30 1 36.5t11 19t29 12.5q23 0 31 -13t9 -22t1 -33v-326v-13
q0 -21 -1 -25.5t-11 -17t-29 -12.5q-23 0 -32 14t-9 50v7zM396 582l-57 -37q-20 -13 -33 -13q-18 0 -30.5 13.5t-12.5 32.5q0 22 29 40l56 37q20 13 33 13q18 0 30.5 -13.5t12.5 -32.5q0 -22 -28 -40z" />
    <glyph glyph-name="ucircumflex" unicode="&#xfb;" 
d="M430 71l-76 -49q-19 -12 -35.5 -17t-36.5 -5h-45q-57 0 -89.5 34.5t-32.5 96.5l-6 262v7l-1 7v7q0 48 40 48q24 0 33.5 -14.5t9.5 -52.5l5 -253q0 -35 10 -47.5t38 -12.5h27q20 0 24 1t19 11l116 72v228q0 30 1 36.5t11 19t29 12.5q23 0 31 -13t9 -22t1 -33v-326v-13
q0 -21 -1 -25.5t-11 -17t-29 -12.5q-23 0 -32 14t-9 50v7zM328 580h-35l-54 -35q-20 -13 -33 -13q-18 0 -30.5 13.5t-12.5 32.5q0 22 29 40l56 37q18 12 35 12h55q16 0 34 -12l57 -37q28 -18 28 -40q0 -18 -13 -32t-30 -14q-13 0 -32 13z" />
    <glyph glyph-name="udieresis" unicode="&#xfc;" 
d="M430 71l-76 -49q-19 -12 -35.5 -17t-36.5 -5h-45q-57 0 -89.5 34.5t-32.5 96.5l-6 262v7l-1 7v7q0 48 40 48q24 0 33.5 -14.5t9.5 -52.5l5 -253q0 -35 10 -47.5t38 -12.5h27q20 0 24 1t19 11l116 72v228q0 30 1 36.5t11 19t29 12.5q23 0 31 -13t9 -22t1 -33v-326v-13
q0 -21 -1 -25.5t-11 -17t-29 -12.5q-23 0 -32 14t-9 50v7zM164 592v18q0 57 43 57q42 0 42 -57v-18q0 -57 -42 -57q-43 0 -43 57zM370 592v18q0 57 43 57q42 0 42 -57v-18q0 -57 -42 -57q-43 0 -43 57z" />
    <glyph glyph-name="yacute" unicode="&#xfd;" 
d="M319 116l111 242v36q0 29 1 36.5t11 19.5t29 12q22 0 31.5 -13.5t9.5 -45.5v-24v-23q0 -12 -4 -21.5t-11 -24.5l-208 -451q-10 -21 -20 -27.5t-31 -6.5h-62q-31 0 -37 1t-18.5 11t-12.5 29q0 41 50 41h18h45l61 127h-11q-14 0 -21 6t-17 28l-110 242q-11 26 -13 31t-2 15
v23v24q0 59 41 59q23 0 31 -13t9 -22t1 -33v-36l111 -242h18zM395 582l-57 -37q-20 -13 -32 -13q-18 0 -30.5 13.5t-12.5 32.5q0 22 28 40l57 37q19 13 32 13q18 0 30.5 -13.5t12.5 -32.5q0 -21 -28 -40z" />
    <glyph glyph-name="thorn" unicode="&#xfe;" 
d="M190 47v-154v-13q0 -10 -0.5 -19t-7.5 -20q-14 -16 -33 -16q-23 0 -31 13t-9 22t-1 33v670q0 30 1 37t11 19.5t29 12.5q41 0 41 -47v-187l32 29q25 23 39 29t39 6h20q25 0 40.5 -6t39.5 -25l66 -52q25 -20 35 -42.5t10 -59.5v-109q0 -39 -9.5 -60t-35.5 -42l-66 -52
q-22 -19 -38.5 -25t-41.5 -6h-20q-25 0 -39 6t-39 29zM414 311l-72 61q-10 8 -23 8h-14q-15 0 -32 -17l-67 -63q-10 -9 -13 -16t-3 -22v-79q0 -12 1.5 -19t14.5 -19l67 -63q17 -17 32 -17h14q12 0 23 8l72 61q15 13 15 41v95q0 28 -15 41z" />
    <glyph glyph-name="ydieresis" unicode="&#xff;" 
d="M319 116l111 242v36q0 29 1 36.5t11 19.5t29 12q22 0 31.5 -13.5t9.5 -45.5v-24v-23q0 -12 -4 -21.5t-11 -24.5l-208 -451q-10 -21 -20 -27.5t-31 -6.5h-62q-31 0 -37 1t-18.5 11t-12.5 29q0 41 50 41h18h45l61 127h-11q-14 0 -21 6t-17 28l-110 242q-11 26 -13 31t-2 15
v23v24q0 59 41 59q23 0 31 -13t9 -22t1 -33v-36l111 -242h18zM161 592v18q0 57 43 57q42 0 42 -57v-18q0 -57 -42 -57q-43 0 -43 57zM367 592v18q0 57 43 57q42 0 42 -57v-18q0 -57 -42 -57q-43 0 -43 57z" />
    <glyph glyph-name="dotlessi" unicode="&#x131;" 
d="M271 380h-54h-13q-11 0 -19.5 0.5t-19.5 7.5q-16 14 -16 33q0 23 13 31t22 9t33 1h68q16 0 30.5 -0.5t24 -10t11.5 -18t2 -39.5v-312h50q30 0 37 -1t19.5 -11t12.5 -29q0 -24 -14.5 -32.5t-54.5 -8.5h-186q-30 0 -37 1t-19 11t-12 29q0 23 13 31t22 9t33 1h54v298z" />
    <glyph glyph-name="Lslash" unicode="&#x141;" 
d="M99 228l-22 -14q-23 -14 -36 -14q-17 0 -29 13t-12 30q0 15 6 23t26 21l67 42v280q0 57 42 57q43 0 43 -57v-227l111 69q22 14 36 14q17 0 29 -13t12 -30q0 -13 -7.5 -22.5t-24.5 -20.5l-156 -98v-196h280q57 0 57 -42q0 -43 -57 -43h-365v228z" />
    <glyph glyph-name="lslash" unicode="&#x142;" 
d="M352 399l54 34q21 13 35 13q16 0 27.5 -12.5t11.5 -28.5q0 -13 -6 -21t-25 -20l-97 -61v-221h50q30 0 37 -1t19.5 -11t12.5 -29q0 -23 -13 -31t-22 -9t-34 -1h-186h-13q-11 0 -19.5 0.5t-19.5 7.5q-16 14 -16 33q0 23 13 31t22 9t33 1h54v171l-51 -32q-21 -13 -34 -13
q-15 0 -27 12t-12 27q0 24 30 43l94 58v202h-54h-13q-21 0 -25.5 1t-17 11t-12.5 29q0 23 13 31t22 9t33 1h68q16 0 30.5 -0.5t24 -10t11.5 -18t2 -39.5v-165z" />
    <glyph glyph-name="OE" unicode="&#x152;" 
d="M396 582v-207h114q57 0 57 -42q0 -43 -57 -43h-114v-204h149q56 0 56 -43t-56 -43h-234h-7q-28 0 -54 18t-41 48l-89 176q-22 44 -22 92q0 45 18 83l93 187q14 29 41 46t62 17h233q56 0 56 -42q0 -43 -56 -43h-149zM311 86v496q-18 0 -26 -16l-85 -172q-17 -34 -17 -61
t17 -60l83 -167q10 -20 28 -20z" />
    <glyph glyph-name="oe" unicode="&#x153;" 
d="M345 401l23 34q20 27 82 27h7q46 0 69 -23l39 -40q35 -38 35 -90v-70q0 -17 -0.5 -31t-10 -23.5t-18 -11.5t-39.5 -2h-153v-19q0 -13 2 -18.5t11 -15.5l20 -23q12 -13 34 -13h86q29 0 36.5 -1t19.5 -11t12 -29q0 -24 -14.5 -32.5t-53.5 -8.5h-86q-35 0 -49 3t-21 13
l-32 45l-35 -29q-38 -32 -88 -32h-21q-27 0 -46.5 7t-41.5 25l-32 26q-38 32 -38 85v176q0 55 38 85l32 26q21 18 40 25t48 7h21q28 0 47.5 -7t40.5 -25zM257 97l23 18q17 14 17 38v156q0 22 -17 38l-23 18q-19 15 -46 15q-16 0 -26 -3t-21 -12l-23 -18q-17 -14 -17 -38
v-156q0 -24 17 -38l23 -18q19 -15 47 -15t46 15zM518 253v56q0 23 -9 34l-19 22q-4 5 -12 10t-12 5h-23q-20 0 -32 -12l-19 -21q-13 -14 -13 -44v-50h139z" />
    <glyph glyph-name="Scaron" unicode="&#x160;" 
d="M405 435h-203q-18 0 -18 -13q0 -8 7 -14l302 -244q17 -15 23 -28.5t6 -39.5q0 -40 -28 -68t-70 -28h-210q-45 0 -80 32t-35 74q0 23 12 36t32 13t29 -10t11 -28.5t10 -25t18 -6.5h207q18 0 18 12q0 8 -9 15l-302 245q-27 21 -27 61q0 48 28 75t78 27h203q45 0 79.5 -33.5
t34.5 -76.5q0 -22 -11.5 -35.5t-30.5 -13.5q-22 0 -31.5 10.5t-12 37t-30.5 26.5zM292 620h36l53 35q20 13 33 13q18 0 30.5 -13.5t12.5 -32.5q0 -22 -28 -40l-57 -37q-18 -12 -34 -12h-56q-16 0 -34 12l-57 37q-28 18 -28 40q0 18 13 32t30 14q13 0 33 -13z" />
    <glyph glyph-name="scaron" unicode="&#x161;" 
d="M238 462h146q31 0 45.5 -4t29.5 -16l23 -20q19 -16 19 -35q0 -17 -12 -29t-30 -12q-13 0 -19.5 3.5t-18 17t-37.5 13.5h-146q-34 0 -34 -24q0 -10 4 -14t24 -13l208 -94q38 -18 55 -44.5t17 -69.5q0 -53 -35 -87t-91 -34h-148q-58 0 -84 19l-20 16q-26 19 -26 39
q0 17 12 29t31 12q17 0 35 -18q12 -15 52 -15h132q55 0 55 45q0 24 -30 38l-213 97q-64 28 -64 96q0 48 32 76t88 28zM293 620h35l54 35q19 13 32 13q18 0 30.5 -13.5t12.5 -32.5q0 -22 -28 -40l-57 -37q-18 -12 -34 -12h-55q-17 0 -35 12l-56 37q-29 18 -29 40q0 18 13 32
t30 14q13 0 33 -13z" />
    <glyph glyph-name="Ydieresis" unicode="&#x178;" 
d="M310 255l127 164v44q0 57 43 57q42 0 42 -57v-73l-170 -219v-114q0 -57 -42 -57q-43 0 -43 57v114l-169 219v73q0 57 43 57q42 0 42 -57v-44zM164 592v18q0 57 43 57q42 0 42 -57v-18q0 -57 -42 -57q-43 0 -43 57zM370 592v18q0 57 43 57q42 0 42 -57v-18q0 -57 -42 -57
q-43 0 -43 57z" />
    <glyph glyph-name="Zcaron" unicode="&#x17d;" 
d="M228 85h236h9q22 0 35 -11t13 -31q0 -43 -57 -43h-366v60l294 375h-237q-57 0 -57 43q0 42 57 42h367v-61zM292 620h36l53 35q20 13 33 13q18 0 30.5 -13.5t12.5 -32.5q0 -22 -28 -40l-57 -37q-18 -12 -34 -12h-56q-16 0 -34 12l-57 37q-28 18 -28 40q0 18 13 32t30 14
q13 0 33 -13z" />
    <glyph glyph-name="zcaron" unicode="&#x17f;" 
d="M211 82h232q30 0 37 -1t19.5 -11t12.5 -29q0 -23 -13 -31t-22 -9t-34 -1h-267q-17 0 -31 0.5t-23.5 10t-11.5 18t-2 39.5v4q0 16 3 22t20 22l276 264h-208h-13q-11 0 -19.5 0.5t-19.5 7.5q-16 14 -16 33q0 41 50 41h18h244q44 0 56.5 -11.5t12.5 -48.5v-8v-5
q0 -14 -3 -20t-14 -17zM306 620h35l54 35q19 13 32 13q18 0 30.5 -13.5t12.5 -32.5q0 -22 -28 -40l-57 -37q-18 -12 -34 -12h-55q-17 0 -35 12l-56 37q-29 18 -29 40q0 18 13 32t30 14q13 0 33 -13z" />
    <glyph glyph-name="florin" unicode="&#x192;" 
d="M296 380h-30q-43 0 -43 34q0 48 58 48h30l5 28q12 68 59 105t121 37h59q39 0 50.5 -6t11.5 -28q0 -20 -14 -32t-22.5 -14t-39.5 -2h-65q-67 0 -78 -60l-5 -28h61q39 0 50.5 -6t11.5 -28q0 -20 -14 -32t-22.5 -14t-40.5 -2h-61l-54 -305q-12 -69 -17 -90.5t-38.5 -69.5
t-135.5 -48h-59q-39 0 -50.5 6t-11.5 28q0 20 14 32t22.5 14t39.5 2h65q67 0 78 60z" />
    <glyph glyph-name="hungarumlaut" unicode="&#x2ba;" 
d="M296 582l-57 -37q-20 -13 -33 -13q-18 0 -30.5 13.5t-12.5 32.5q0 22 29 40l56 37q20 13 33 13q18 0 30.5 -13.5t12.5 -32.5q0 -22 -28 -40zM482 582l-56 -37q-20 -13 -33 -13q-18 0 -30.5 13.5t-12.5 32.5q0 22 28 40l57 37q19 13 33 13q18 0 30.5 -13.5t12.5 -32.5
q0 -22 -29 -40z" />
    <glyph glyph-name="circumflex" unicode="&#x2c6;" 
d="M328 580h-35l-54 -35q-20 -13 -33 -13q-18 0 -30.5 13.5t-12.5 32.5q0 22 29 40l56 37q18 12 35 12h55q16 0 34 -12l57 -37q28 -18 28 -40q0 -18 -13 -32t-30 -14q-13 0 -32 13z" />
    <glyph glyph-name="caron" unicode="&#x2c7;" 
d="M293 620h35l54 35q19 13 32 13q18 0 30.5 -13.5t12.5 -32.5q0 -22 -28 -40l-57 -37q-18 -12 -34 -12h-55q-17 0 -35 12l-56 37q-29 18 -29 40q0 18 13 32t30 14q13 0 33 -13z" />
    <glyph glyph-name="breve" unicode="&#x2d8;" 
d="M421 667q43 0 43 -39q0 -22 -17 -48t-42 -39t-94 -13q-70 0 -95 13t-42 38t-17 49q0 39 43 39q14 0 21.5 -6.5t15.5 -24.5t22 -23t52 -5q43 0 54 5t21.5 29.5t34.5 24.5z" />
    <glyph glyph-name="dotaccent" unicode="&#x2d9;" 
d="M267 592v18q0 57 43 57q42 0 42 -57v-18q0 -57 -42 -57q-43 0 -43 57z" />
    <glyph glyph-name="ring" unicode="&#x2da;" 
d="M249 667h146q34 0 57 -23t23 -57v-55q0 -34 -23 -57t-57 -23h-146q-34 0 -57 23t-23 57v55q0 34 23 57t57 23zM249 586v-58h145v58h-145z" />
    <glyph glyph-name="ogonek" unicode="&#x2db;" horiz-adv-x="763" 
d="M470 0h87q-20 -22 -27 -34.5t-7 -27.5q0 -26 31.5 -30t31.5 -34q0 -17 -13 -29t-33 -12q-41 0 -69.5 27.5t-28.5 66.5q0 37 28 73z" />
    <glyph glyph-name="tilde" unicode="&#x2dc;" 
d="M314 644l23 -15q14 -9 21 -12t16 -3q14 0 22.5 26t42.5 26q18 0 29.5 -10.5t11.5 -26.5q0 -38 -32 -66t-76 -28q-20 0 -32.5 4t-31.5 17l-16 11l-14 8q-20 13 -35 13q-14 0 -22.5 -26t-42.5 -26q-18 0 -29.5 10.5t-11.5 26.5q0 39 31.5 66.5t75.5 27.5q35 0 70 -23z" />
    <glyph glyph-name="endash" unicode="&#x2013;" 
d="M455 293h-290q-57 0 -57 43t57 43h290q56 0 56 -43t-56 -43z" />
    <glyph glyph-name="emdash" unicode="&#x2014;" 
d="M563 293h-506q-57 0 -57 43t57 43h506q57 0 57 -43t-57 -43z" />
    <glyph glyph-name="quoteleft" unicode="&#x2018;" 
d="M244 475l25 150q6 42 41 42t42 -41l24 -151q2 -10 3.5 -23t1.5 -17q0 -45 -54 -45h-17q-38 0 -54.5 10.5t-16.5 34.5v12q3 13 5 28z" />
    <glyph glyph-name="quoteright" unicode="&#x2019;" 
d="M376 582l-25 -150q-7 -42 -41 -42q-35 0 -42 41l-24 151l-5 40q0 45 54 45h17q38 0 54.5 -10.5t16.5 -34.5z" />
    <glyph glyph-name="quotedblleft" unicode="&#x201c;" 
d="M338 475l24 150q7 42 42 42t41 -41l25 -151q2 -12 3.5 -23.5t1.5 -16.5q0 -45 -55 -45h-16q-38 0 -54.5 10.5t-16.5 34.5q0 12 2 22.5t3 17.5zM151 475l25 150q6 42 41 42t42 -41l24 -151q2 -10 3.5 -23t1.5 -17q0 -45 -54 -45h-17q-38 0 -54.5 10.5t-16.5 34.5v12
q3 13 5 28z" />
    <glyph glyph-name="quotedblright" unicode="&#x201d;" 
d="M283 582l-25 -150q-7 -42 -41 -42q-35 0 -42 41l-24 151l-5 41q0 20 14.5 32t39.5 12h17q38 0 54.5 -10.5t16.5 -34.5zM470 582l-25 -150q-7 -42 -41 -42q-35 0 -42 41l-25 151q-2 10 -3 22.5t-1 18.5q0 20 14.5 32t39.5 12h17q38 0 54.5 -10.5t16.5 -34.5z" />
    <glyph glyph-name="quotedblbase" unicode="&#x201e;" 
d="M283 180l-25 -150q-7 -42 -41 -42q-35 0 -42 41l-24 151l-5 41q0 20 14.5 32t39.5 12h17q38 0 54.5 -10.5t16.5 -34.5zM470 180l-25 -150q-7 -42 -41 -42q-35 0 -42 41l-25 151q-2 10 -3 22.5t-1 18.5q0 20 14.5 32t39.5 12h17q38 0 54.5 -10.5t16.5 -34.5z" />
    <glyph glyph-name="dagger" unicode="&#x2020;" 
d="M352 499h78q57 0 57 -43t-57 -43h-78v-357q0 -56 -43 -56q-42 0 -42 56v357h-78q-57 0 -57 43t57 43h78v111q0 57 42 57q43 0 43 -57v-111z" />
    <glyph glyph-name="daggerdbl" unicode="&#x2021;" 
d="M352 499h78q57 0 57 -43t-57 -43h-78v-94h78q57 0 57 -42q0 -43 -57 -43h-78v-177q0 -56 -43 -56q-42 0 -42 56v177h-78q-57 0 -57 43q0 42 57 42h78v94h-78q-57 0 -57 43t57 43h78v111q0 57 42 57q43 0 43 -57v-111z" />
    <glyph glyph-name="perthousand" unicode="&#x2030;" 
d="M460 626l-401 -692q-21 -35 -37 -35q-22 0 -22 26q0 21 19 52l401 689q20 34 40 34q19 0 19 -23q0 -18 -19 -51zM62 423v234q0 17 13 30t30 13h89q18 0 30.5 -13.5t12.5 -31.5v-234q0 -17 -13 -29t-30 -12h-90q-16 0 -29 13t-13 30zM108 426h83v228h-83v-228zM239 -56
v235q0 17 13 30t30 13h90q18 0 30.5 -13.5t12.5 -31.5v-235q0 -17 -13 -29t-30 -12h-91q-16 0 -29 13t-13 30zM285 -53h84v229h-84v-229zM445 -57v234q0 17 13 30t30 13h89q18 0 30.5 -13.5t12.5 -31.5v-234q0 -17 -13 -29t-30 -12h-90q-16 0 -29 13t-13 30zM491 -54h83v228
h-83v-228z" />
    <glyph glyph-name="guilsinglleft" unicode="&#x2039;" 
d="M192 285l272 -181q18 -11 24 -19.5t6 -22.5q0 -18 -12 -30t-29 -12q-12 0 -36 14l-254 169q-27 18 -32 25t-5 29v15v25q0 36 3.5 42.5t33.5 26.5l254 169q23 14 36 14q17 0 29 -12t12 -30q0 -22 -30 -42z" />
    <glyph glyph-name="guilsinglright" unicode="&#x203a;" 
d="M427 284l-271 181q-30 20 -30 42q0 18 12 30t29 12q12 0 36 -14l254 -169l14 -9q17 -11 20 -19t3 -41v-25v-15q0 -23 -4 -29t-33 -25l-255 -168q-21 -15 -35 -15q-17 0 -29 12t-12 30q0 22 30 42z" />
    <glyph glyph-name="minus" unicode="&#x2212;" 
d="M464 288h-309q-57 0 -57 43q0 42 57 42h309q56 0 56 -42q0 -43 -56 -43z" />
    <glyph glyph-name="fraction" unicode="&#x2215;" 
d="M546 626l-401 -692q-21 -35 -44 -35q-30 0 -30 29q0 25 14 49l401 689q20 34 41 34q13 0 22.5 -10.5t9.5 -25.5q0 -17 -13 -38z" />
    <glyph glyph-name="lessequal" unicode="&#x2264;" 
d="M495 0h-371q-57 0 -57 43q0 42 57 42h371q57 0 57 -42q0 -43 -57 -43zM207 406l302 -200q33 -22 33 -47q0 -19 -13 -33t-32 -14q-10 0 -17.5 3t-22.5 14l-357 237q-23 14 -23 40t23 41l357 237q16 11 23 14t17 3q18 0 32 -14t14 -33q0 -15 -6.5 -24.5t-27.5 -22.5z" />
    <glyph glyph-name="greaterequal" unicode="&#x2265;" 
d="M495 0h-371q-57 0 -57 43q0 42 57 42h371q57 0 57 -42q0 -43 -57 -43zM412 406l-302 201q-33 22 -33 47q0 19 13 33t32 14q10 0 17.5 -3t22.5 -14l357 -237q23 -15 23 -41q0 -25 -23 -40l-357 -237q-17 -12 -23 -14.5t-17 -2.5q-18 0 -31.5 14.5t-13.5 32.5
q0 15 6.5 24.5t26.5 22.5z" />
    <glyph glyph-name="fi" unicode="&#xf001;" 
d="M298 462h94h18q30 0 40 -13.5t10 -54.5v-312h50q30 0 37 -1t19.5 -11t12.5 -29q0 -24 -14.5 -32.5t-54.5 -8.5h-185q-40 0 -54.5 8.5t-14.5 32.5q0 23 13 31t22 9t34 1h53v298h-180v-312v-13q0 -21 -1 -25.5t-10.5 -17t-29.5 -12.5q-23 0 -31 13t-9 22t-1 33v312h-12
q-40 0 -54 8.5t-14 32.5t14.5 32.5t53.5 8.5h12v28q0 68 41 105t115 37q60 0 60 -41t-50 -41h-16q-68 0 -68 -60v-28h75h18h7zM473 609v-12q0 -47 -51 -47q-30 0 -42.5 10.5t-12.5 36.5v12q0 35 9.5 45.5t40.5 10.5q36 0 46 -10t10 -46z" />
    <glyph glyph-name="fl" unicode="&#xf002;" 
d="M467 82h50q30 0 37 -1t19.5 -11t12.5 -29q0 -23 -15 -32t-54 -9h-186q-40 0 -54 8.5t-14 32.5q0 23 13 31t22 9t33 1h54v468h-112q-68 0 -68 -60v-28h61q30 0 37 -1t19.5 -11t12.5 -29q0 -23 -13 -31t-22 -9t-34 -1h-61v-312v-13q0 -11 -0.5 -19.5t-10.5 -22t-30 -13.5
q-25 0 -32 13t-8 22t-1 33v312h-12q-40 0 -54 8.5t-14 32.5t14.5 32.5t53.5 8.5h12v28q0 34 10 59t34 47t50 29t92 7h90q16 0 30.5 -0.5t24 -10t11.5 -18t2 -39.5v-482z" />
  </font>
</defs>
</svg>
